<svg viewBox="0 0 640.865 49" fill="none" xmlns="http://www.w3.org/2000/svg" xmlns:xlink="http://www.w3.org/1999/xlink" id="ee0e4523" x="0" y="0"><g id="e-page--booking" data-node-id="41:4"><g id="Slot → Section → e-page--booking--root" data-node-id="41:18"><g id="Group 5" data-node-id="43:467"><g id="e-section → Slot → e-service-search" data-node-id="41:65" clip-path="url(#clip5_41_4)"><g id="e-input" data-node-id="41:66"><mask id="mask0_41_4" style="mask-type:alpha" maskUnits="userSpaceOnUse" x="103" y="26.133899999999997" width="641" height="49"><g id="::before:mask" data-node-id="41:67" clip-path="url(#clip6_41_4)"><path id="Vector_4" data-node-id="41:68" d="M115.639,26.6638v4.0013h616.208v-4.0013h12.004v48.0161h-640.216v-48.0161z" fill="black"/></g></mask><g mask="url(#mask0_41_4)"><rect id="::before_3" data-node-id="41:69" x="104.135" y="27.163799999999995" width="639.216" height="47.0162" rx="7.5" stroke="#90979C"/></g></g><g id="e-input_4" data-node-id="41:73"><g id="search--black.svg fill" data-node-id="41:74" clip-path="url(#clip8_41_4)"><g id="search--black.svg" data-node-id="41:75"><path id="Vector_5" data-node-id="41:76" fill-rule="evenodd" clip-rule="evenodd" d="M120.641,49.6719c0,-3.315 2.687,-6.002 6.002,-6.002c3.315,0 6.002,2.687 6.002,6.002c0,3.314 -2.687,6.002 -6.002,6.002c-3.315,0 -6.002,-2.688 -6.002,-6.002zM126.643,41.6689c-4.42,0 -8.003,3.583 -8.003,8.003c0,4.419 3.583,8.002 8.003,8.002c1.849,0 3.552,-0.627 4.907,-1.68l3.388,3.388l0.708,0.707l1.414,-1.414l-0.707,-0.708l-3.388,-3.388c1.053,-1.355 1.68,-3.058 1.68,-4.907c0,-4.42 -3.583,-8.003 -8.002,-8.003z" fill="#172126"/></g></g></g></g></g></g></g><defs><clipPath id="clip5_41_4"><rect width="640" height="64" fill="white" transform="translate(103.635, 10.6584) scale(1.00034, -60.86576)"/></clipPath><clipPath id="clip6_41_4"><rect width="640" height="48" fill="white" transform="translate(103.635, 26.663799999999995) scale(1.00034, -60.86576)"/></clipPath><mask id="mask0_41_4" style="mask-type:alpha" maskUnits="userSpaceOnUse" x="103" y="88" width="641" height="49"><g id="::before:mask" data-node-id="41:67" clip-path="url(#clip6_41_4)"><path id="Vector_4" data-node-id="41:68" d="M115.639 88.5299V92.5312H731.847V88.5299H743.851V136.546H103.635V88.5299H115.639Z" fill="black"/></g></mask><clipPath id="clip8_41_4"><rect width="24" height="24" fill="white" transform="translate(115.639, 38.6679) scale(1.00034, -60.86576)"/></clipPath></defs></svg>