<svg viewBox="0 0 245.08 61.019" x="0" y="0" fill="none" xmlns="http://www.w3.org/2000/svg"><defs><clipPath id="clip9_41_4" xmlns="http://www.w3.org/2000/svg"><rect width="60" height="60" fill="white" transform="translate(0.5, 0.5) scale(-1121.67966, -951.1206599999999)"/></clipPath><clipPath id="clip10_41_4" xmlns="http://www.w3.org/2000/svg"><rect width="60" height="60" fill="white" transform="translate(0.5, 0.5) scale(-1121.67966, -951.1206599999999)"/></clipPath><clipPath id="clip11_41_4" xmlns="http://www.w3.org/2000/svg"><rect width="60" height="60" fill="white" transform="translate(92.52999999999997, 0.5) scale(-1121.67966, -951.1206599999999)"/></clipPath><clipPath id="clip12_41_4" xmlns="http://www.w3.org/2000/svg"><rect width="60" height="60" fill="white" transform="translate(92.52999999999997, 0.5) scale(-1121.67966, -951.1206599999999)"/></clipPath><linearGradient id="paint0_linear_41_4" x1="132.54999999999995" y1="10.505999999999972" x2="117.53999999999996" y2="45.51599999999996" gradientUnits="userSpaceOnUse" xmlns="http://www.w3.org/2000/svg"><stop stop-color="#37AEE2"/><stop offset="1" stop-color="#1E96C8"/></linearGradient><linearGradient id="paint1_linear_41_4" x1="126.48000000000002" y1="30.024999999999977" x2="131.23000000000002" y2="40.735000000000014" gradientUnits="userSpaceOnUse" xmlns="http://www.w3.org/2000/svg"><stop stop-color="#EFF7FC"/><stop offset="1" stop-color="white"/></linearGradient><clipPath id="clip13_41_4" xmlns="http://www.w3.org/2000/svg"><rect width="60" height="60" fill="white" transform="translate(184.55999999999995, 0.5) scale(-1121.67966, -951.1206599999999)"/></clipPath><clipPath id="clip14_41_4" xmlns="http://www.w3.org/2000/svg"><rect width="60" height="60" fill="white" transform="translate(184.55999999999995, 0.5) scale(-1121.67966, -951.1206599999999)"/></clipPath></defs><g id="div#list" data-node-id="41:82" xmlns="http://www.w3.org/2000/svg"><g id="Slot → e-section--socials--item" data-node-id="41:83"><g id="viber.svg fill" data-node-id="41:84" clip-path="url(#clip9_41_4)"><g id="viber.svg" data-node-id="41:85" clip-path="url(#clip10_41_4)"><path id="Vector_6" data-node-id="41:86" d="M30.51,60.519c16.57,0 30.01,-13.434 30.01,-30.009c0,-16.574 -13.44,-30.01 -30.01,-30.01c-16.58,0 -30.01,13.436 -30.01,30.01c0,16.575 13.43,30.009 30.01,30.009z" fill="#6F3FAA"/><path id="Vector_7" data-node-id="41:87" d="M46.43,22.884l-0.01,-0.035c-0.8,-3.23 -4.44,-6.682 -7.76,-7.405l-0.04,-0.012c-5.38,-1.014 -10.85,-1.014 -16.23,0l-0.03,0.012c-3.33,0.723 -6.95,4.175 -7.76,7.405l-0.01,0.035c-1,4.501 -1,9.072 0,13.574l0.01,0.035c0.77,3.09 4.12,6.39 7.34,7.3v3.603c0,1.303 1.59,1.943 2.51,1.003l3.68,-3.79c0.8,0.047 1.6,0.07 2.4,0.07c2.72,0 5.42,-0.256 8.11,-0.758l0.04,-0.012c3.33,-0.723 6.96,-4.174 7.76,-7.405l0.01,-0.035c0.98,-4.513 0.98,-9.084 -0.02,-13.585zM43.52,35.805c-0.54,2.099 -3.29,4.723 -5.48,5.201c-2.86,0.536 -5.75,0.769 -8.63,0.688c-0.06,0 -0.11,0.023 -0.15,0.058c-0.41,0.42 -2.68,2.729 -2.68,2.729l-2.86,2.904c-0.21,0.221 -0.57,0.069 -0.57,-0.234v-5.959c0,-0.093 -0.07,-0.186 -0.17,-0.198c-2.19,-0.478 -4.94,-3.102 -5.48,-5.201c-0.89,-4.07 -0.89,-8.198 0,-12.268c0.54,-2.099 3.29,-4.723 5.48,-5.201c5,-0.944 10.08,-0.944 15.08,0c2.18,0.478 4.93,3.102 5.48,5.201c0.88,4.082 0.88,8.21 -0.02,12.28z" fill="white"/><path id="Vector_8" data-node-id="41:88" d="M35.26,38.751c-0.34,-0.094 0.29,-0.082 0,0z" fill="white"/><path id="Vector_9" data-node-id="41:89" d="M35.26,38.752c-0.34,-0.105 -0.66,-0.176 -0.95,-0.293c-3.07,-1.278 -5.91,-2.919 -8.15,-5.439c-1.28,-1.43 -2.27,-3.06 -3.12,-4.771c-0.4,-0.809 -0.74,-1.653 -1.08,-2.497c-0.31,-0.762 0.16,-1.559 0.64,-2.134c0.45,-0.539 1.04,-0.949 1.67,-1.266c0.5,-0.234 0.99,-0.105 1.35,0.317c0.79,0.914 1.5,1.863 2.09,2.919c0.36,0.644 0.26,1.442 -0.39,1.875c-0.15,0.106 -0.3,0.235 -0.44,0.352c-0.13,0.105 -0.25,0.211 -0.34,0.351c-0.17,0.259 -0.17,0.575 -0.07,0.856c0.79,2.204 2.14,3.916 4.36,4.83c0.35,0.152 0.71,0.317 1.11,0.27c0.68,-0.082 0.9,-0.833 1.38,-1.22c0.47,-0.386 1.07,-0.386 1.57,-0.07c0.51,0.317 1,0.657 1.48,1.008c0.48,0.34 0.95,0.669 1.4,1.055c0.42,0.375 0.57,0.856 0.33,1.372c-0.44,0.926 -1.07,1.7 -1.99,2.192c-0.25,0.164 -0.56,0.211 -0.85,0.293c0.29,-0.082 -0.34,-0.094 0,0z" fill="white"/><path id="Vector_10" data-node-id="41:90" d="M30.52,21.296c4.02,0.118 7.33,2.779 8.03,6.765c0.12,0.679 0.17,1.371 0.22,2.063c0.03,0.293 -0.14,0.562 -0.45,0.562c-0.33,0 -0.47,-0.269 -0.5,-0.551c-0.04,-0.574 -0.07,-1.148 -0.15,-1.711c-0.42,-3.001 -2.8,-5.475 -5.79,-6.002c-0.44,-0.082 -0.9,-0.106 -1.36,-0.152c-0.29,-0.036 -0.67,-0.047 -0.73,-0.411c-0.05,-0.305 0.2,-0.539 0.48,-0.551c0.09,-0.012 0.17,-0.012 0.25,-0.012c4.02,0.118 -0.08,0 0,0z" fill="white"/><path id="Vector_11" data-node-id="41:91" d="M36.63,29.221c-0.01,0.047 -0.01,0.164 -0.04,0.281c-0.1,0.399 -0.71,0.457 -0.85,0.047c-0.05,-0.117 -0.05,-0.258 -0.05,-0.387c0,-0.856 -0.19,-1.699 -0.62,-2.438c-0.45,-0.762 -1.11,-1.407 -1.91,-1.794c-0.48,-0.234 -1,-0.375 -1.53,-0.468c-0.23,-0.036 -0.45,-0.059 -0.69,-0.094c-0.28,-0.035 -0.43,-0.211 -0.41,-0.493c0.01,-0.257 0.2,-0.445 0.48,-0.422c0.93,0.047 1.82,0.247 2.64,0.692c1.67,0.879 2.63,2.274 2.9,4.138c0.01,0.082 0.03,0.164 0.03,0.258c0.03,0.199 0.04,0.41 0.05,0.68c0,0.047 -0.01,-0.27 0,0z" fill="white"/><path id="Vector_12" data-node-id="41:92" d="M34.13,29.127c-0.34,0.012 -0.51,-0.176 -0.55,-0.492c-0.02,-0.211 -0.05,-0.434 -0.09,-0.645c-0.11,-0.41 -0.32,-0.797 -0.67,-1.043c-0.16,-0.117 -0.35,-0.211 -0.54,-0.258c-0.25,-0.07 -0.5,-0.047 -0.75,-0.117c-0.27,-0.071 -0.41,-0.282 -0.37,-0.528c0.03,-0.222 0.25,-0.41 0.5,-0.387c1.56,0.118 2.67,0.915 2.84,2.755c0.01,0.129 0.02,0.27 0,0.387c-0.06,0.211 -0.21,0.316 -0.37,0.328c0.16,-0.012 -0.34,0 0,0z" fill="white"/><path id="Vector_13" data-node-id="41:93" d="M30.52,21.296c0.23,0.012 3.86,0.118 0,0z" fill="white"/><path id="Vector_14" data-node-id="41:94" d="M36.63,29.222c-0.01,-0.27 0,0.047 0,0z" fill="white"/></g></g></g><g id="Slot → e-section--socials--item_2" data-node-id="41:95"><g id="telegram.svg fill" data-node-id="41:96" clip-path="url(#clip11_41_4)"><g id="telegram.svg" data-node-id="41:97" clip-path="url(#clip12_41_4)"><path id="Vector_15" data-node-id="41:98" d="M122.54,60.519c16.57,0 30.01,-13.434 30.01,-30.009c0,-16.574 -13.44,-30.01 -30.01,-30.01c-16.57,0 -30.01,13.436 -30.01,30.01c0,16.575 13.44,30.009 30.01,30.009z" fill="url(#paint0_linear_41_4)"/><path id="Vector_16" data-node-id="41:99" d="M117.04,44.265c-0.97,0 -0.81,-0.367 -1.14,-1.292l-2.86,-9.411l22,-13.055" fill="#C8DAEA"/><path id="Vector_17" data-node-id="41:100" d="M117.04,44.265c0.75,0 1.08,-0.343 1.5,-0.75l4,-3.891l-4.99,-3.009" fill="#A9C9DD"/><path id="Vector_18" data-node-id="41:101" d="M117.77,36.16l12.05,8.98c1.37,0.767 2.37,0.371 2.71,-1.287l4.9,-23.315c0.51,-2.031 -0.76,-2.952 -2.08,-2.351l-28.8,11.204c-1.96,0.795 -1.95,1.902 -0.36,2.395l7.39,2.327l17.11,-10.89c0.81,-0.494 1.55,-0.228 0.94,0.316" fill="url(#paint1_linear_41_4)"/></g></g></g><g id="Slot → e-section--socials--item_3" data-node-id="41:102"><g id="whatsapp.svg fill" data-node-id="41:103" clip-path="url(#clip13_41_4)"><g id="whatsapp.svg" data-node-id="41:104" clip-path="url(#clip14_41_4)"><path id="Vector_19" data-node-id="41:105" d="M214.57,60.519c16.58,0 30.01,-13.434 30.01,-30.009c0,-16.574 -13.43,-30.01 -30.01,-30.01c-16.57,0 -30.01,13.436 -30.01,30.01c0,16.575 13.44,30.009 30.01,30.009z" fill="#40C351"/><path id="Vector_20" data-node-id="41:106" d="M209.81,20.873c0.4,0.009 0.67,0.363 0.82,0.675c0.51,1.097 0.91,2.228 1.4,3.333c0.1,0.228 0.17,0.481 0.08,0.726c-0.25,0.717 -0.85,1.232 -1.32,1.806c-0.17,0.194 -0.15,0.472 -0.02,0.675c1.31,2.52 3.54,4.44 6.24,5.358c0.25,0.11 0.56,0.084 0.73,-0.135c0.51,-0.565 0.99,-1.153 1.45,-1.764c0.39,-0.506 0.73,-0.362 1.23,-0.152l3.26,1.562c0.26,0.109 0.51,0.295 0.48,0.59c0.17,2.194 -1.8,3.899 -3.87,3.966c-5.35,-0.388 -8.99,-3.341 -11.62,-6.75c-0.87,-1.199 -1.78,-2.405 -2.26,-3.831c-0.45,-1.249 -0.46,-2.675 0.07,-3.907c0.82,-1.646 1.54,-2.279 3.36,-2.177zM204.81,14.578c3.92,-2.784 8.99,-3.848 13.74,-2.903c3.08,0.606 5.94,2.012 8.29,4.076c3.32,2.902 5.45,6.933 5.95,11.307c0.34,2.888 -0.04,5.814 -1.1,8.523c-1.26,3.206 -3.48,6.025 -6.3,8.016c-2.71,1.926 -5.91,3.052 -9.24,3.249c-3.33,0.204 -6.65,-0.527 -9.59,-2.11l-9.49,2.447l2.5,-9.113c0.05,-0.11 -0.03,-0.202 -0.09,-0.287c-1.87,-3.333 -2.62,-7.181 -2.12,-10.969c0.33,-2.436 1.16,-4.779 2.44,-6.884c1.27,-2.104 2.97,-3.926 4.98,-5.352zM209,15.641c-2.84,1.266 -5.26,3.443 -6.8,6.135c-1.22,2.11 -1.9,4.514 -1.95,6.945c-0.09,2.97 0.76,5.949 2.4,8.438c0.08,0.152 0.23,0.312 0.17,0.506l-1.45,5.266c1.81,-0.456 3.62,-0.946 5.43,-1.401c0.23,-0.085 0.43,0.101 0.61,0.202c3.13,1.878 6.85,2.542 10.44,1.865c2.09,-0.398 4.08,-1.248 5.81,-2.489c2.71,-1.936 4.69,-4.72 5.63,-7.907c0.84,-2.906 0.76,-5.999 -0.22,-8.86c-0.87,-2.513 -2.41,-4.746 -4.45,-6.464c-2.14,-1.813 -4.76,-2.979 -7.55,-3.358c-2.72,-0.363 -5.55,0.025 -8.06,1.156z" fill="#FCFCFC"/></g></g></g></g></svg>