<svg viewBox="0 0 153.68000000000006 68.01000000000022" x="0" y="0" fill="none" xmlns="http://www.w3.org/2000/svg"><defs><clipPath id="clip27_2_293" xmlns="http://www.w3.org/2000/svg"><rect width="56" height="28" fill="white" transform="translate(2.2737367544323206e-13, 0)"/></clipPath><clipPath id="clip28_2_293" xmlns="http://www.w3.org/2000/svg"><rect width="56" height="28" fill="white" transform="translate(2.2737367544323206e-13, 0)"/></clipPath><clipPath id="clip29_2_293" xmlns="http://www.w3.org/2000/svg"><rect width="56" height="28" fill="white" transform="translate(2.2737367544323206e-13, 0)"/></clipPath><clipPath id="clip30_2_293" xmlns="http://www.w3.org/2000/svg"><rect width="56" height="28" fill="white" transform="translate(68.02000000000021, 0)"/></clipPath><clipPath id="clip31_2_293" xmlns="http://www.w3.org/2000/svg"><rect width="56" height="28" fill="white" transform="translate(68.02000000000021, 0)"/></clipPath><clipPath id="clip32_2_293" xmlns="http://www.w3.org/2000/svg"><rect width="56" height="28" fill="white" transform="translate(68.02000000000021, 0)"/></clipPath><clipPath id="clip33_2_293" xmlns="http://www.w3.org/2000/svg"><rect width="56" height="28" fill="white" transform="translate(2.2737367544323206e-13, 40)"/></clipPath><clipPath id="clip34_2_293" xmlns="http://www.w3.org/2000/svg"><rect width="56" height="28" fill="white" transform="translate(2.2737367544323206e-13, 40)"/></clipPath><clipPath id="clip35_2_293" xmlns="http://www.w3.org/2000/svg"><rect width="56" height="28" fill="white" transform="translate(2.2737367544323206e-13, 40)"/></clipPath><linearGradient id="paint6_linear_2_293" x1="49.43000000000029" y1="51.160000000000764" x2="37.41000000000031" y2="51.160000000000764" gradientUnits="userSpaceOnUse" xmlns="http://www.w3.org/2000/svg"><stop stop-color="#1F5CD7"/><stop offset="1" stop-color="#02AEFF"/></linearGradient><clipPath id="clip36_2_293" xmlns="http://www.w3.org/2000/svg"><rect width="86" height="28" fill="white" transform="translate(68.02000000000021, 40)"/></clipPath><clipPath id="clip37_2_293" xmlns="http://www.w3.org/2000/svg"><rect width="86" height="28" fill="white" transform="translate(68.02000000000021, 40)"/></clipPath><clipPath id="clip38_2_293" xmlns="http://www.w3.org/2000/svg"><rect width="86" height="28" fill="white" transform="translate(68.02000000000021, 40)"/></clipPath></defs><g id="e-section → Slot → e-footer--payment" data-node-id="2:428" xmlns="http://www.w3.org/2000/svg"><g id="mastercard.svg" data-node-id="2:429" clip-path="url(#clip27_2_293)"><g id="mastercard.svg fill" data-node-id="2:430" clip-path="url(#clip28_2_293)"><g id="mastercard.svg_2" data-node-id="2:431" clip-path="url(#clip29_2_293)"><path id="Vector_22" data-node-id="2:432" d="M49.42,0h-42.83c-3.64,0 -6.59,2.95 -6.59,6.59v14.82c0,3.64 2.95,6.59 6.59,6.59h42.83c3.64,0 6.59,-2.95 6.59,-6.59v-14.82c0,-3.64 -2.95,-6.59 -6.59,-6.59z" fill="white"/><path id="Vector_23" data-node-id="2:433" d="M32.45,6.3h-8.91v16.01h8.91z" fill="#FF5A00"/><path id="Vector_24" data-node-id="2:434" d="M24.13,14.3c0,-3.25 1.53,-6.14 3.88,-8.01c-1.73,-1.35 -3.91,-2.17 -6.29,-2.17c-5.63,0 -10.18,4.55 -10.18,10.18c0,5.64 4.55,10.19 10.18,10.19c2.38,0 4.56,-0.82 6.29,-2.18c-2.35,-1.84 -3.88,-4.75 -3.88,-8.01z" fill="#EB001B"/><path id="Vector_25" data-node-id="2:435" d="M44.48,14.3c0,5.64 -4.55,10.19 -10.19,10.19c-2.37,0 -4.55,-0.82 -6.28,-2.18c2.38,-1.87 3.88,-4.75 3.88,-8.01c0,-3.25 -1.53,-6.14 -3.88,-8.01c1.72,-1.35 3.9,-2.17 6.28,-2.17c5.64,0 10.19,4.58 10.19,10.18z" fill="#F79E1B"/></g></g></g><g id="visa.svg" data-node-id="2:436" clip-path="url(#clip30_2_293)"><g id="visa.svg fill" data-node-id="2:437" clip-path="url(#clip31_2_293)"><g id="visa.svg_2" data-node-id="2:438" clip-path="url(#clip32_2_293)"><path id="Vector_26" data-node-id="2:439" d="M117.44,0h-42.83c-3.64,0 -6.59,2.95 -6.59,6.59v14.82c0,3.64 2.95,6.59 6.59,6.59h42.83c3.64,0 6.59,-2.95 6.59,-6.59v-14.82c0,-3.64 -2.95,-6.59 -6.59,-6.59z" fill="white"/><path id="Vector_27" data-node-id="2:440" d="M96.75,11.76c0,1.88 1.62,2.9 2.89,3.5c1.28,0.59 1.71,1.02 1.71,1.62c0,0.85 -1.02,1.28 -1.96,1.28c-1.71,0 -2.64,-0.43 -3.41,-0.86l-0.6,2.82c0.77,0.34 2.22,0.68 3.67,0.68c3.49,0 5.8,-1.71 5.8,-4.44c0,-3.41 -4.69,-3.58 -4.69,-5.11c0,-0.43 0.42,-0.94 1.45,-1.11c0.51,-0.09 1.79,-0.09 3.32,0.6l0.6,-2.73c-0.77,-0.26 -1.88,-0.6 -3.16,-0.6c-3.24,0.09 -5.62,1.88 -5.62,4.35zM111.16,7.75c-0.69,0 -1.2,0.34 -1.45,0.94l-5.03,11.94h3.49l0.68,-1.96h4.27l0.42,1.96h3.07l-2.64,-12.88zM111.67,11.25l1.02,4.86h-2.73zM92.48,7.75l-2.73,12.88h3.33l2.73,-12.88zM87.62,7.75l-3.49,8.78l-1.37,-7.5c-0.17,-0.85 -0.85,-1.28 -1.53,-1.28h-5.72l-0.08,0.34c1.19,0.26 2.47,0.69 3.32,1.11c0.52,0.26 0.6,0.51 0.77,1.11l2.65,10.32h3.49l5.37,-12.88z" fill="#1A1F71"/></g></g></g><g id="mir.svg" data-node-id="2:441" clip-path="url(#clip33_2_293)"><g id="mir.svg fill" data-node-id="2:442" clip-path="url(#clip34_2_293)"><g id="mir.svg_2" data-node-id="2:443" clip-path="url(#clip35_2_293)"><path id="Vector_28" data-node-id="2:444" d="M49.42,40h-42.83c-3.64,0 -6.59,2.95 -6.59,6.59v14.83c0,3.64 2.95,6.59 6.59,6.59h42.83c3.64,0 6.59,-2.95 6.59,-6.59v-14.83c0,-3.64 -2.95,-6.59 -6.59,-6.59z" fill="white"/><path id="Vector_29" data-node-id="2:445" fill-rule="evenodd" clip-rule="evenodd" d="M12.05,48.24c0.37,0 1.46,-0.1 1.92,1.47c0.51,1.72 1.01,3.44 1.49,5.17h0.28c0.73,-2.53 1.24,-4.25 1.51,-5.17c0.47,-1.59 1.64,-1.47 2.11,-1.47h3.61v11.23h-3.68v-6.62h-0.25l-2.05,6.62h-2.77l-2.05,-6.62h-0.25v6.62h-3.68v-11.23zM28.25,48.24v6.63h0.29l2.5,-5.45c0.48,-1.09 1.52,-1.18 1.52,-1.18h3.56v11.23h-3.76v-6.62h-0.29l-2.45,5.45c-0.48,1.08 -1.57,1.17 -1.57,1.17h-3.56v-11.23zM49.1,53.58c-0.52,1.49 -2.17,2.55 -3.99,2.55h-3.94v3.34h-3.57v-5.89z" fill="#0F754E"/><path id="Vector_30" data-node-id="2:446" fill-rule="evenodd" clip-rule="evenodd" d="M45.28,48.24h-7.87c0.19,2.5 2.34,4.64 4.57,4.64h7.37c0.43,-2.07 -1.04,-4.64 -4.07,-4.64z" fill="url(#paint6_linear_2_293)"/></g></g></g><g id="halva.svg" data-node-id="2:447" clip-path="url(#clip36_2_293)"><g id="halva.svg fill" data-node-id="2:448" clip-path="url(#clip37_2_293)"><g id="halva.svg_2" data-node-id="2:449" clip-path="url(#clip38_2_293)"><path id="Vector_31" data-node-id="2:450" d="M149.68,40h-77.66c-2.21,0 -4,1.8 -4,4.01v20c0,2.21 1.79,4 4,4h77.66c2.21,0 4,-1.79 4,-4v-20c0,-2.21 -1.79,-4.01 -4,-4.01z" fill="white"/><path id="Vector_32" data-node-id="2:451" fill-rule="evenodd" clip-rule="evenodd" d="M97.95,56.8c-0.55,0 -1.09,-0.16 -1.55,-0.47c-0.46,-0.3 -0.82,-0.74 -1.04,-1.25c-0.21,-0.51 -0.26,-1.07 -0.16,-1.61c0.11,-0.55 0.37,-1.05 0.77,-1.44c0.39,-0.39 0.88,-0.66 1.43,-0.76c0.54,-0.11 1.1,-0.06 1.61,0.15c0.51,0.21 0.95,0.57 1.26,1.03c0.3,0.46 0.47,1 0.47,1.56c0,0.74 -0.29,1.45 -0.82,1.97c-0.52,0.52 -1.23,0.82 -1.97,0.82zM97.95,48.24c-0.97,0 -1.92,0.24 -2.77,0.71c-0.86,0.46 -1.58,1.13 -2.1,1.95c-0.52,0.82 -0.83,1.75 -0.89,2.72c-0.07,0.97 0.11,1.94 0.52,2.82c0.41,0.88 1.03,1.64 1.81,2.21c0.79,0.58 1.7,0.94 2.66,1.07c0.96,0.13 1.94,0.01 2.84,-0.34c0.91,-0.35 1.71,-0.92 2.33,-1.67c-0.38,0.71 -0.93,1.31 -1.57,1.68v0.3h2.92v-5.71c-0.01,-1.53 -0.61,-2.98 -1.69,-4.06c-1.08,-1.07 -2.54,-1.68 -4.06,-1.68zM125.62,56.86h-3.8v-1.87h3.73c0.46,0 1.01,0.43 1.01,0.93c0,0.36 -0.29,0.94 -0.94,0.94zM121.82,51.16h3.19c0.35,0 0.92,0.36 0.92,0.93c0,0.45 -0.37,0.94 -1.01,0.94h-3.1zM128.21,53.66c0.69,-1.05 0.76,-2.49 0.12,-3.56c-0.31,-0.54 -0.75,-0.98 -1.29,-1.29c-0.53,-0.31 -1.14,-0.47 -1.76,-0.47l-6.37,-0.01v11.36l7.13,-0.01c2.24,0 3.49,-1.85 3.49,-3.4c0,-1.49 -0.85,-2.24 -1.32,-2.62zM116.02,52.52c0.96,2.58 1.01,4.93 1.01,7.17h-2.97c0,-1.82 -0.06,-3.48 -0.44,-4.97c-0.51,-2.01 -1.46,-3.46 -2.34,-3.46c-0.88,0 -1.83,1.45 -2.34,3.46c-0.38,1.49 -0.44,3.11 -0.44,4.97h-2.97c0,-2.04 0.05,-4.59 1.01,-7.17c0.89,-2.41 2.56,-4.28 4.74,-4.28c2.18,0 3.85,1.87 4.74,4.28zM88.09,48.33h2.96v1.2c0,0.86 -0.19,1.71 -0.56,2.48c-0.37,0.78 -0.91,1.46 -1.57,2c0.66,0.54 1.2,1.22 1.57,2c0.37,0.77 0.56,1.62 0.56,2.48v1.2h-2.96v-1.5c0,-0.74 -0.3,-1.45 -0.82,-1.97c-0.52,-0.52 -1.23,-0.82 -1.97,-0.82c-0.74,0 -1.45,0.3 -1.97,0.82c-0.53,0.52 -0.82,1.23 -0.82,1.97v1.5h-2.96v-1.2c0,-0.86 0.19,-1.71 0.56,-2.48c0.37,-0.78 0.9,-1.46 1.57,-2c-0.67,-0.54 -1.2,-1.22 -1.57,-2c-0.37,-0.77 -0.56,-1.62 -0.56,-2.48v-1.2h2.96v1.5c0,0.74 0.29,1.45 0.82,1.97c0.52,0.52 1.23,0.82 1.97,0.82c0.74,0 1.45,-0.3 1.97,-0.82c0.52,-0.52 0.82,-1.23 0.82,-1.97zM136.4,56.8c-0.56,0 -1.1,-0.16 -1.56,-0.47c-0.46,-0.3 -0.82,-0.74 -1.03,-1.25c-0.21,-0.51 -0.27,-1.07 -0.16,-1.61c0.1,-0.55 0.37,-1.05 0.76,-1.44c0.39,-0.39 0.89,-0.66 1.43,-0.76c0.54,-0.11 1.11,-0.06 1.62,0.15c0.51,0.21 0.94,0.57 1.25,1.03c0.31,0.46 0.47,1 0.47,1.56c0,0.74 -0.29,1.45 -0.81,1.97c-0.52,0.52 -1.23,0.82 -1.97,0.82zM142.15,53.98c-0.01,-1.36 -0.5,-2.66 -1.37,-3.7c-0.88,-1.03 -2.09,-1.72 -3.42,-1.95c-1.33,-0.23 -2.7,0.02 -3.87,0.7c-1.17,0.68 -2.07,1.75 -2.52,3.03c-0.46,1.27 -0.46,2.66 0.01,3.93c0.46,1.27 1.36,2.34 2.53,3.01c1.17,0.68 2.55,0.92 3.88,0.68c1.33,-0.23 2.54,-0.93 3.41,-1.97c-0.38,0.71 -0.93,1.31 -1.57,1.68v0.3h2.92z" fill="black"/></g></g></g></g></svg>