<svg width="21000" height="6000" xmlns="http://www.w3.org/2000/svg">
 <defs>
  <filter id="Layer_1_blur">
   <feGaussianBlur in="SourceGraphic" stdDeviation="0"/>
  </filter>
 </defs>
 <g>
  <title>Layer 1</title>
  <g stroke="null" id="Layer_1" filter="url(#Layer_1_blur)" stroke-width="10">
   <g stroke="null" id="Group_2089111108544">
    <path stroke="null" class="fil0" d="m24.99725,5905.8497l1039.28043,-5868.86139l1625.86816,0l1001.02471,4068.97468l12.75191,0l682.22702,-4068.97468l1224.18308,0l-1026.52852,5868.86139l-1619.4922,0l-1020.15257,-4061.28285l-12.75191,0l-675.85108,4061.28285l-1230.55904,0zm8492.77015,-2538.30179c0,-253.83017 -51.00763,-461.50942 -153.02288,-630.72954c-108.39122,-169.22012 -274.16601,-253.83017 -497.32437,-253.83017c-293.29387,0 -529.20414,153.83647 -707.73084,469.20124c-184.90265,307.67295 -280.54196,646.11318 -280.54196,1023.01254c0,299.98112 63.75954,538.42766 184.90265,715.33959c127.51908,176.91195 293.29387,269.21383 497.32437,261.522c293.29387,0 529.20414,-138.45283 701.3549,-423.0503c172.15074,-276.90566 255.03815,-669.18866 255.03815,-1161.46537l-0.00002,0zm1300.69452,15.38366c0,876.86788 -210.40647,1530.67289 -637.59536,1969.10684c-420.81294,438.43395 -988.2728,661.49683 -1708.75555,661.49683c-637.59536,0 -1109.41591,-184.60376 -1421.83764,-561.50312c-312.42172,-369.20754 -465.4446,-846.10059 -465.4446,-1446.06284c0,-769.18237 210.40647,-1392.22008 643.97131,-1869.11313c427.18889,-476.89305 994.64875,-707.64776 1696.00364,-707.64776c599.33963,0 1058.40828,184.60376 1396.33383,546.11947c331.54958,369.20754 497.32437,838.40876 497.32437,1407.60371zm165.77479,2399.84896l248.66219,-1030.70437c325.17364,161.52829 663.09916,246.13836 1020.15257,246.13836c471.82057,0 701.3549,-123.06917 701.3549,-384.59117c0,-115.37735 -51.00763,-207.67924 -153.02288,-276.90566c-102.01525,-69.22641 -223.15838,-138.45283 -369.8053,-199.98741c-146.64693,-53.84276 -293.29387,-123.06917 -446.31675,-207.67924c-146.64693,-84.61005 -274.16601,-215.37105 -376.18126,-392.283c-102.01525,-176.91195 -153.02288,-399.97483 -153.02288,-669.18866c0,-330.74842 95.63931,-599.96224 293.29387,-830.71695c191.27861,-223.06288 420.81294,-376.89936 688.60299,-469.20124c267.79004,-92.30188 554.70796,-138.45283 854.37778,-138.45283c357.0534,0 758.73847,84.61005 1205.05522,261.522l-261.4141,992.24525c-331.54958,-169.22012 -663.09916,-246.13836 -1007.40066,-246.13836c-388.93317,0 -586.58773,123.06917 -586.58773,376.89936c0,107.68553 82.8874,207.67924 242.28624,299.98112c165.77479,92.30188 344.30149,176.91195 541.95605,246.13836c197.65456,76.91824 376.18126,199.98741 541.95605,376.89936c159.39884,176.91195 242.28624,384.59117 242.28624,630.72954c0,523.044 -159.39884,923.01883 -478.19652,1207.6163c-318.79767,276.90566 -726.8587,423.0503 -1224.18308,438.43395c-548.332,7.69183 -1058.40828,-69.22641 -1523.85291,-230.75471l-0.00003,0zm3487.64659,0l248.66219,-1030.70437c318.79767,161.52829 663.09916,246.13836 1020.15257,246.13836c465.4446,0 701.3549,-123.06917 701.3549,-384.59117c0,-115.37735 -51.00763,-207.67924 -153.02288,-276.90566c-102.01525,-69.22641 -223.15838,-138.45283 -369.8053,-199.98741c-146.64693,-53.84276 -293.29387,-123.06917 -446.31675,-207.67924c-146.64693,-84.61005 -274.16601,-215.37105 -376.18126,-392.283c-102.01525,-176.91195 -153.02288,-399.97483 -153.02288,-669.18866c0,-330.74842 95.63931,-599.96224 286.9179,-830.71695c197.65456,-223.06288 427.18889,-376.89936 694.97893,-469.20124c267.79004,-92.30188 548.332,-138.45283 854.37778,-138.45283c357.0534,0 758.73847,84.61005 1205.05522,261.522l-267.79004,992.24525c-325.17364,-169.22012 -656.72322,-246.13836 -1001.02471,-246.13836c-388.93317,0 -586.58773,123.06917 -586.58773,376.89936c0,107.68553 82.8874,207.67924 242.28624,299.98112c165.77479,92.30188 344.30149,176.91195 541.95605,246.13836c197.65456,76.91824 376.18126,199.98741 541.95605,376.89936c159.39884,176.91195 242.28624,384.59117 242.28624,630.72954c0,523.044 -159.39884,923.01883 -478.19652,1207.6163c-318.79767,276.90566 -726.8587,423.0503 -1224.18308,438.43395c-554.70796,7.69183 -1058.40828,-69.22641 -1523.85291,-230.75471l-0.00002,0zm6012.52421,123.06917l57.38357,-607.65407l-12.75191,-23.07547l0,23.07547c-248.66219,476.89305 -656.72322,715.33959 -1217.80713,715.33959c-809.7461,0 -1217.80713,-423.0503 -1217.80713,-1276.84271c0,-515.35218 191.27861,-907.63518 561.08391,-1184.54083c376.18126,-276.90566 854.37778,-415.35847 1440.96551,-415.35847c165.77479,0 388.93317,7.69183 675.85108,38.45912c12.75191,-38.45912 12.75191,-99.99371 12.75191,-176.91195c0,-161.52829 -57.38357,-299.98112 -184.90265,-399.97483c-121.14311,-107.68553 -280.54196,-161.52829 -484.57246,-161.52829c-414.43698,0 -809.7461,115.37735 -1173.17545,346.13205l121.14311,-1107.62259c408.06103,-161.52829 854.37778,-246.13836 1332.57429,-246.13836c471.82057,0 848.00183,115.37735 1141.29568,361.51571c293.29387,238.44654 433.56484,615.34588 433.56484,1123.00625c0,238.44654 -63.75954,692.26412 -191.27861,1353.76096c-133.89502,669.18866 -223.15838,1215.30813 -267.79004,1638.35842l-1026.52852,0l0,0.00002zm-1205.05522,-1338.3773c0,107.68553 38.25572,207.67924 121.14311,299.98112c76.51145,92.30188 178.5267,130.761 306.04578,130.761c261.4141,0 471.82057,-92.30188 631.2194,-284.59747c165.77479,-192.29559 267.79004,-438.43395 318.79767,-746.10688c-70.13548,-15.38366 -184.90265,-23.07547 -337.92555,-23.07547c-299.66981,-15.38366 -548.332,38.45912 -745.98656,153.83647c-191.27861,123.06917 -293.29387,276.90566 -293.29387,469.20124l0.00002,-0.00002z" fill="black" fill-rule="nonzero" id="svg_1"/>
    <ellipse stroke="null" class="fil1" cx="7663.38962" cy="3767.52274" rx="1166.7995" ry="1522.98108" fill="black" id="svg_2"/>
    <path stroke="null" class="fil2" d="m6764.38016,4229.03216c-31.87977,284.59747 82.8874,561.50312 299.66981,723.03142c133.89502,99.99371 306.04578,161.52829 484.57246,161.52829c102.01525,0 153.02288,0 255.03815,-23.07547c57.38357,-15.38366 82.8874,-23.07547 133.89502,-38.45912c12.75191,-7.69183 25.50382,-15.38366 38.25572,-15.38366c12.75191,-7.69183 25.50382,-15.38366 38.25572,-23.07547c12.75191,-7.69183 25.50382,-7.69183 38.25572,-15.38366c82.8874,-46.15095 89.26334,-53.84276 159.39884,-107.68553c6.37595,-7.69183 6.37595,-7.69183 12.75191,-15.38366c38.25572,-30.76729 57.38357,-46.15095 89.26334,-84.61005c70.13548,-69.22641 133.89502,-153.83647 172.15074,-238.44654c6.37595,-15.38366 12.75191,-23.07547 19.12786,-38.45912c140.27099,-315.36476 95.63931,-607.65407 -12.75191,-869.17607l-25.50382,-61.53459c-19.12786,-53.84276 -63.75954,-130.761 -82.8874,-176.91195l-44.63168,-92.30188c-25.50382,-46.15095 -89.26334,-184.60376 -114.76716,-238.44654l-63.75954,-146.14466c-70.13548,-161.52829 -178.5267,-492.27671 -216.78242,-653.805l-25.50382,-107.68553c-6.37595,-7.69183 -6.37595,-23.07547 -12.75191,-30.76729l-6.37595,0l-133.89502,269.21383c-25.50382,53.84276 -70.13548,153.83647 -102.01525,199.98741l-38.25572,61.53459c-19.12786,53.84276 -146.64693,261.522 -184.90265,315.36476c-12.75191,7.69183 -12.75191,15.38366 -25.50382,30.76729c-44.63168,76.91824 -165.77479,246.13836 -223.15838,323.05659l-204.03051,299.98112c-102.01525,169.22012 -197.65456,346.13205 -223.15838,592.27042l0.00005,0.00005z" fill="#FEFEFE" id="svg_3"/>
    <!-- Additional SVG shapes here -->
   </g>
  </g>
 </g>
</svg>