<svg width="9539" height="5816" xmlns="http://www.w3.org/2000/svg">
 <defs>
  <style type="text/css">
   <![CDATA[
    .fil3 {fill:black}
    .fil1 {fill:black}
    .fil2 {fill:#FEFEFE}
    .fil0 {fill:black;fill-rule:nonzero}
   ]]>
  </style>
 </defs>
 <g>
  <title>background</title>
  <rect fill="none" id="canvas_background" height="5818" width="9541" y="-1" x="-1"/>
 </g>
 <g>
  <title>Layer 1</title>
  <g stroke="null" id="Слой_x0020_1">
   <metadata stroke="null" transform="translate(60.000030517578125,-1120.00048828125) translate(-380.00018310546875,40.00001907348633) translate(0.0040283203125,0) translate(-2400.001220703125,100.00004577636719) translate(160.0000762939453,60.000030517578125) translate(-60.000030517578125,-2980.00146484375) translate(680.0003051757812,1380.000732421875) translate(-780.0003662109375,-5980.0029296875) translate(0,0.001953125) translate(-1680.0008544921875,-160.0000762939453) translate(-3860.001953125,-2640.001220703125) translate(4464.998046875,8716.9990234375) scale(2.5707671642303467,2.5089409351348877) translate(-4464.998046875,-8716.9990234375) " id="CorelCorpID_0Corel-Layer"/>
   <g stroke="null" id="_2089111108544">
    <path stroke="null" id="svg_1" d="m1047.032889,3727.576821l419.035048,-1914.321934l655.545627,0l403.610445,1327.229755l5.141534,0l275.072087,-1327.229755l493.587296,0l-413.893513,1914.321934l-652.97486,0l-411.322746,-1324.720814l-5.141534,0l-272.501319,1324.720814l-496.158063,0zm3424.261863,-827.950509c0,-82.795051 -20.566137,-150.536456 -61.698412,-205.733157c-43.703042,-55.196701 -110.542988,-82.795051 -200.519839,-82.795051c-118.25529,0 -213.373675,50.178819 -285.355155,153.045397c-74.552248,100.357637 -113.113755,210.751039 -113.113755,333.689144c0,97.848696 25.707672,175.625865 74.552248,233.331507c51.415343,57.705642 118.25529,87.812933 200.519839,85.303992c118.25529,0 213.373675,-45.160937 282.784388,-137.991751c69.410713,-90.321874 102.830687,-218.277861 102.830687,-378.850081zm524.436502,5.017882c0,286.019267 -84.835316,499.279246 -257.076716,642.288879c-169.670633,143.009633 -398.46891,215.76892 -688.9656,215.76892c-257.076716,0 -447.313487,-60.214582 -573.281078,-183.152688c-125.967591,-120.429165 -187.666003,-275.983503 -187.666003,-471.680896c0,-250.894094 84.835316,-454.118309 259.647484,-609.672647c172.2414,-155.554338 401.039678,-230.822566 683.824066,-230.822566c241.652113,0 426.747349,60.214582 562.998009,178.134806c133.679893,120.429165 200.519839,273.474562 200.519839,459.136191zm66.839946,782.789572l100.259919,-336.198085c131.109125,52.68776 267.359785,80.28611 411.322746,80.28611c190.23677,0 282.784388,-40.143055 282.784388,-125.447047c0,-37.634114 -20.566137,-67.741405 -61.698412,-90.321874c-41.132275,-22.580468 -89.976851,-45.160937 -149.104496,-65.232464c-59.127645,-17.562587 -118.25529,-40.143055 -179.953701,-67.741405c-59.127645,-27.59835 -110.542988,-70.250346 -151.675263,-127.955988c-41.132275,-57.705642 -61.698412,-130.464929 -61.698412,-218.277861c0,-107.88446 38.561507,-195.697393 118.25529,-270.965621c77.123015,-72.759287 169.670633,-122.938106 277.642854,-153.045397c107.972221,-30.107291 223.656743,-45.160937 344.4828,-45.160937c143.962961,0 305.921293,27.59835 485.874994,85.303992l-105.401454,323.653381c-133.679893,-55.196701 -267.359785,-80.28611 -406.181212,-80.28611c-156.816797,0 -236.510579,40.143055 -236.510579,122.938106c0,35.125173 33.419973,67.741405 97.689152,97.848696c66.839946,30.107291 138.821427,57.705642 218.515209,80.28611c79.693782,25.089409 151.675263,65.232464 218.515209,122.938106c64.269179,57.705642 97.689152,125.447047 97.689152,205.733157c0,170.607984 -64.269179,301.072912 -192.807537,393.903727c-128.538358,90.321874 -293.067457,137.991751 -493.587296,143.009633c-221.085976,2.508941 -426.747349,-22.580468 -614.413352,-75.268228zm1406.209639,0l100.259919,-336.198085c128.538358,52.68776 267.359785,80.28611 411.322746,80.28611c187.666003,0 282.784388,-40.143055 282.784388,-125.447047c0,-37.634114 -20.566137,-67.741405 -61.698412,-90.321874c-41.132275,-22.580468 -89.976851,-45.160937 -149.104496,-65.232464c-59.127645,-17.562587 -118.25529,-40.143055 -179.953701,-67.741405c-59.127645,-27.59835 -110.542988,-70.250346 -151.675263,-127.955988c-41.132275,-57.705642 -61.698412,-130.464929 -61.698412,-218.277861c0,-107.88446 38.561507,-195.697393 115.684522,-270.965621c79.693782,-72.759287 172.2414,-122.938106 280.213621,-153.045397c107.972221,-30.107291 221.085976,-45.160937 344.4828,-45.160937c143.962961,0 305.921293,27.59835 485.874994,85.303992l-107.972221,323.653381c-131.109125,-55.196701 -264.789018,-80.28611 -403.610445,-80.28611c-156.816797,0 -236.510579,40.143055 -236.510579,122.938106c0,35.125173 33.419973,67.741405 97.689152,97.848696c66.839946,30.107291 138.821427,57.705642 218.515209,80.28611c79.693782,25.089409 151.675263,65.232464 218.515209,122.938106c64.269179,57.705642 97.689152,125.447047 97.689152,205.733157c0,170.607984 -64.269179,301.072912 -192.807537,393.903727c-128.538358,90.321874 -293.067457,137.991751 -493.587296,143.009633c-223.656743,2.508941 -426.747349,-22.580468 -614.413352,-75.268228zm2424.233436,40.143055l23.136904,-198.206334l-5.141534,-7.526823l0,7.526823c-100.259919,155.554338 -264.789018,233.331507 -491.016528,233.331507c-326.48743,0 -491.016528,-137.991751 -491.016528,-416.484195c0,-168.099043 77.123015,-296.05503 226.22751,-386.376904c151.675263,-90.321874 344.4828,-135.48281 580.993379,-135.48281c66.839946,0 156.816797,2.508941 272.501319,12.544705c5.141534,-12.544705 5.141534,-32.616232 5.141534,-57.705642c0,-52.68776 -23.136904,-97.848696 -74.552248,-130.464929c-48.844576,-35.125173 -113.113755,-52.68776 -195.378304,-52.68776c-167.099866,0 -326.48743,37.634114 -473.021158,112.902342l48.844576,-361.287495c164.529099,-52.68776 344.4828,-80.28611 537.290337,-80.28611c190.23677,0 341.912033,37.634114 460.167322,117.920224c118.25529,77.777169 174.812167,200.715275 174.812167,366.305377c0,77.777169 -25.707672,225.804684 -77.123015,441.573605c-53.98611,218.277861 -89.976851,396.412668 -107.972221,534.404419l-413.893513,0zm-485.874994,-436.555723c0,35.125173 15.424603,67.741405 48.844576,97.848696c30.849206,30.107291 71.981481,42.651996 123.396824,42.651996c105.401454,0 190.23677,-30.107291 254.505949,-92.830815c66.839946,-62.723523 107.972221,-143.009633 128.538358,-243.367271c-28.278439,-5.017882 -74.552248,-7.526823 -136.25066,-7.526823c-120.826057,-5.017882 -221.085976,12.544705 -300.779758,50.178819c-77.123015,40.143055 -118.25529,90.321874 -118.25529,153.045397z" class="fil0"/>
    <ellipse stroke="null" id="svg_2" ry="496.770305" rx="470.450391" cy="3030.091241" cx="4126.811952" class="fil1"/>
    <path stroke="null" id="svg_3" d="m3764.333781,3180.627697c-12.853836,92.830815 33.419973,183.152688 120.826057,235.840448c53.98611,32.616232 123.396824,52.68776 195.378304,52.68776c41.132275,0 61.698412,0 102.830687,-7.526823c23.136904,-5.017882 33.419973,-7.526823 53.98611,-12.544705c5.141534,-2.508941 10.283069,-5.017882 15.424603,-5.017882c5.141534,-2.508941 10.283069,-5.017882 15.424603,-7.526823c5.141534,-2.508941 10.283069,-2.508941 15.424603,-5.017882c33.419973,-15.053646 35.99074,-17.562587 64.269179,-35.125173c2.570767,-2.508941 2.570767,-2.508941 5.141534,-5.017882c15.424603,-10.035764 23.136904,-15.053646 35.99074,-27.59835c28.278439,-22.580468 53.98611,-50.178819 69.410713,-77.777169c2.570767,-5.017882 5.141534,-7.526823 7.712301,-12.544705c56.556878,-102.866578 38.561507,-198.206334 -5.141534,-283.510326l-10.283069,-20.071527c-7.712301,-17.562587 -25.707672,-42.651996 -33.419973,-57.705642l-17.99537,-30.107291c-10.283069,-15.053646 -35.99074,-60.214582 -46.273809,-77.777169l-25.707672,-47.669878c-28.278439,-52.68776 -71.981481,-160.57222 -87.406084,-213.259979l-10.283069,-35.125173c-2.570767,-2.508941 -2.570767,-7.526823 -5.141534,-10.035764l-2.570767,0l-53.98611,87.812933c-10.283069,17.562587 -28.278439,50.178819 -41.132275,65.232464l-15.424603,20.071527c-7.712301,17.562587 -59.127645,85.303992 -74.552248,102.866578c-5.141534,2.508941 -5.141534,5.017882 -10.283069,10.035764c-17.99537,25.089409 -66.839946,80.28611 -89.976851,105.375519l-82.264549,97.848696c-41.132275,55.196701 -79.693782,112.902342 -89.976851,193.188452z" class="fil2"/>
    <path stroke="null" id="svg_4" d="m4715.517632,646.597352l0,2.508941c0,0 0,0 0,-2.508941z" class="fil3"/>
    <polygon stroke="null" id="svg_5" points="4710.375518798828,669.1787109375 4712.947296142578,659.142578125 " class="fil3"/>
    <path stroke="null" id="svg_6" d="m4710.376098,669.177821c0,27.59835 0,12.544705 -7.712301,17.562587c0,-25.089409 0,-10.035764 7.712301,-17.562587z" class="fil3"/>
    <path stroke="null" id="svg_7" d="m2149.892002,1534.762444c578.422612,-301.072912 1431.91731,-255.911975 2018.052224,-25.089409c118.25529,45.160937 285.355155,127.955988 393.327376,200.715275l167.099866,127.955988c12.853836,15.053646 20.566137,25.089409 35.99074,37.634114c23.136904,15.053646 20.566137,10.035764 38.561507,32.616232c10.283069,12.544705 64.269179,75.268228 74.552248,80.28611c-2.570767,-37.634114 -64.269179,-168.099043 -84.835316,-198.206334c-20.566137,-32.616232 -33.419973,-60.214582 -53.98611,-92.830815c-82.264549,-135.48281 -210.802907,-286.019267 -329.058197,-393.903727l-161.958331,-125.447047c-164.529099,-120.429165 -390.756609,-225.804684 -593.847215,-281.001385c-156.816797,-42.651996 -311.062827,-72.759287 -496.158063,-87.812933c-48.844576,-2.508941 -92.547618,0 -136.25066,-5.017882c-46.273809,-5.017882 -105.401454,0 -141.392194,2.508941c-46.273809,7.526823 -95.118385,0 -141.392194,5.017882c-131.109125,20.071527 -223.656743,10.035764 -383.044307,55.196701c-56.556878,15.053646 -66.839946,10.035764 -79.693782,67.741405l-125.967591,599.636883zm-223.656743,3522.553073c197.949072,0 480.73346,-7.526823 665.828696,-60.214582c25.707672,-7.526823 46.273809,-17.562587 69.410713,-20.071527l66.839946,-316.126558c12.853836,-62.723523 66.839946,-283.510326 66.839946,-326.162322c-23.136904,5.017882 -66.839946,32.616232 -95.118385,45.160937c-195.378304,80.28611 -506.441131,158.063279 -714.673272,155.554338c-51.415343,0 -82.264549,7.526823 -141.392194,7.526823c-545.002639,0 -1164.557525,-140.500692 -1581.021806,-481.71666c-35.99074,-30.107291 -95.118385,-77.777169 -120.826057,-112.902342c-10.283069,-10.035764 -69.410713,-72.759287 -77.123015,-77.777169c33.419973,132.97387 187.666003,373.832199 275.072087,479.207719c95.118385,115.411283 136.25066,148.027515 236.510579,238.349389c87.406084,80.28611 177.382934,135.48281 280.213621,198.206334c295.638224,175.625865 717.244039,270.965621 1069.43914,270.965621z" class="fil3"/>
    <path stroke="null" id="svg_8" d="m1941.659862,5202.834091c-164.529099,0 -313.633594,-22.580468 -467.879624,-57.705642c-35.99074,-10.035764 -89.976851,-27.59835 -125.967591,-30.107291c-12.853836,25.089409 -25.707672,120.429165 -35.99074,153.045397c-15.424603,70.250346 -89.976851,441.573605 -105.401454,469.171955c118.25529,27.59835 411.322746,72.759287 542.431872,72.759287c79.693782,0 187.666003,-12.544705 259.647484,-20.071527c92.547618,-10.035764 169.670633,-20.071527 251.935182,-37.634114c254.505949,-50.178819 519.294967,-130.464929 750.664012,-243.367271c38.561507,-17.562587 61.698412,-35.125173 97.689152,-50.178819c151.675263,-75.268228 419.035048,-260.929857 542.431872,-373.832199c71.981481,-62.723523 203.090606,-185.661629 257.076716,-250.894094l128.538358,-155.554338c43.703042,-50.178819 84.835316,-105.375519 123.396824,-163.081161c56.556878,-82.795051 293.067457,-459.136191 303.350525,-549.458065l-77.123015,90.321874c-71.981481,82.795051 -249.364415,255.911975 -326.48743,318.635499c-107.972221,87.812933 -218.515209,173.116925 -336.770499,250.894094c-190.23677,125.447047 -398.46891,243.367271 -614.413352,326.162322c-118.25529,45.160937 -223.656743,85.303992 -349.624334,120.429165c-236.510579,67.741405 -562.998009,130.464929 -817.503958,130.464929z" class="fil3"/>
    <path stroke="null" id="svg_9" d="m481.464113,1896.049938l33.419973,-32.616232c15.424603,-15.053646 15.424603,-20.071527 30.849206,-35.125173c15.424603,-15.053646 15.424603,-20.071527 30.849206,-35.125173c12.853836,-15.053646 23.136904,-22.580468 35.99074,-37.634114c25.707672,-30.107291 38.561507,-42.651996 66.839946,-72.759287c25.707672,-22.580468 46.273809,-42.651996 69.410713,-67.741405c262.218251,-255.911975 575.851845,-459.136191 904.910042,-622.217352c35.99074,-17.562587 64.269179,-25.089409 97.689152,-42.651996c272.501319,-132.97387 683.824066,-228.313625 984.603824,-268.45668l259.647484,-22.580468c77.123015,-7.526823 305.921293,27.59835 377.902773,40.143055c43.703042,7.526823 74.552248,15.053646 115.684522,25.089409c38.561507,10.035764 74.552248,20.071527 113.113755,27.59835c5.141534,-70.250346 131.109125,-579.565356 133.679893,-629.744175c-61.698412,0 -303.350525,-65.232464 -542.431872,-65.232464c-496.158063,0 -1028.306866,160.57222 -1449.912681,401.43055l-259.647484,170.607984l-231.369045,190.679511c-43.703042,42.651996 -66.839946,55.196701 -110.542988,100.357637c-15.424603,17.562587 -17.99537,22.580468 -33.419973,40.143055l-136.25066,148.027515c-87.406084,95.339756 -233.939812,298.563971 -298.208991,411.466313c-35.99074,62.723523 -66.839946,115.411283 -102.830687,183.152688l-66.839946,143.009633c-10.283069,17.562587 -15.424603,32.616232 -23.136904,50.178819z" class="fil3"/>
   </g>
  </g>
 </g>
</svg>