<svg width="21000" height="29700" xmlns="http://www.w3.org/2000/svg">
 <defs>
  <filter id="Layer_1_blur">
   <feGaussianBlur in="SourceGraphic" stdDeviation="0"/>
  </filter>
 </defs>
 <g>
  <title>Layer 1</title>
  <g stroke="null" id="Layer_1" filter="url(#Layer_1_blur)" stroke-width="10">
   <g stroke="null" id="Group_2089111108544">
    <path stroke="null" class="fil0" d="m864.99763,15553.10133l953.93487,-5476.10242l1492.35211,0l918.82071,3796.66865l11.70473,0l626.20264,-3796.66865l1123.65335,0l-942.23015,5476.10242l-1486.49974,0l-936.37779,-3789.49158l-11.70473,0l-620.35029,3789.49158l-1129.50572,0zm7795.34514,-2368.43225c0,-236.84322 -46.81889,-430.62404 -140.45666,-588.51953c-99.49015,-157.89549 -251.65154,-236.84322 -456.48417,-236.84322c-269.20862,0 -485.74598,143.54134 -649.61209,437.80112c-169.71847,287.0827 -257.50389,602.87366 -257.50389,954.54997c0,279.90563 58.52361,502.39472 169.71847,667.46726c117.04723,165.07256 269.20862,251.19736 456.48417,244.02029c269.20862,0 485.74598,-129.18722 643.75974,-394.73871c158.01375,-258.37443 234.09446,-624.40487 234.09446,-1083.73718l-0.00002,0zm1193.88169,14.35414c0,818.18568 -193.12792,1428.23641 -585.23612,1837.32925c-386.25585,409.09285 -907.11599,617.2278 -1568.43281,617.2278c-585.23612,0 -1018.31084,-172.24961 -1305.07654,-523.92592c-286.7657,-344.49924 -427.22236,-789.47741 -427.22236,-1349.28867c0,-717.70675 193.12792,-1299.04921 591.08848,-1744.02738c392.1082,-444.97817 912.96834,-660.29019 1556.72808,-660.29019c550.12195,0 971.49196,172.24961 1281.66711,509.57178c304.32278,344.49924 456.48417,782.30034 456.48417,1313.40333zm152.16139,2239.24503l228.24209,-961.72704c298.47043,150.71841 608.64556,229.66616 936.37779,229.66616c433.07473,0 643.75974,-114.83307 643.75974,-358.85337c0,-107.656 -46.81889,-193.78082 -140.45666,-258.37443c-93.63778,-64.59361 -204.83265,-129.18722 -339.43694,-186.60375c-134.60431,-50.23947 -269.20862,-114.83307 -409.66528,-193.78082c-134.60431,-78.94773 -251.65154,-200.95788 -345.28931,-366.03044c-93.63778,-165.07256 -140.45666,-373.20751 -140.45666,-624.40487c0,-308.6139 87.78542,-559.81126 269.20862,-775.12328c175.57084,-208.13495 386.25585,-351.67631 632.05501,-437.80112c245.79917,-86.12481 509.15543,-129.18722 784.2164,-129.18722c327.73223,0 696.43098,78.94773 1106.09626,244.02029l-239.94681,925.8417c-304.32278,-157.89549 -608.64556,-229.66616 -924.67307,-229.66616c-356.99404,0 -538.41724,114.83307 -538.41724,351.67631c0,100.47895 76.0807,193.78082 222.38973,279.90563c152.16139,86.12481 316.02751,165.07256 497.4507,229.66616c181.4232,71.77068 345.28931,186.60375 497.4507,351.67631c146.30903,165.07256 222.38973,358.85337 222.38973,588.51953c0,488.04058 -146.30903,861.24809 -438.92709,1126.79958c-292.61805,258.37443 -667.16917,394.73871 -1123.65335,409.09285c-503.30306,7.17707 -971.49196,-64.59361 -1398.71433,-215.31202l-0.00003,0zm3201.24158,0l228.24209,-961.72704c292.61805,150.71841 608.64556,229.66616 936.37779,229.66616c427.22236,0 643.75974,-114.83307 643.75974,-358.85337c0,-107.656 -46.81889,-193.78082 -140.45666,-258.37443c-93.63778,-64.59361 -204.83265,-129.18722 -339.43694,-186.60375c-134.60431,-50.23947 -269.20862,-114.83307 -409.66528,-193.78082c-134.60431,-78.94773 -251.65154,-200.95788 -345.28931,-366.03044c-93.63778,-165.07256 -140.45666,-373.20751 -140.45666,-624.40487c0,-308.6139 87.78542,-559.81126 263.35625,-775.12328c181.4232,-208.13495 392.1082,-351.67631 637.90737,-437.80112c245.79917,-86.12481 503.30306,-129.18722 784.2164,-129.18722c327.73223,0 696.43098,78.94773 1106.09626,244.02029l-245.79917,925.8417c-298.47043,-157.89549 -602.79321,-229.66616 -918.82071,-229.66616c-356.99404,0 -538.41724,114.83307 -538.41724,351.67631c0,100.47895 76.0807,193.78082 222.38973,279.90563c152.16139,86.12481 316.02751,165.07256 497.4507,229.66616c181.4232,71.77068 345.28931,186.60375 497.4507,351.67631c146.30903,165.07256 222.38973,358.85337 222.38973,588.51953c0,488.04058 -146.30903,861.24809 -438.92709,1126.79958c-292.61805,258.37443 -667.16917,394.73871 -1123.65335,409.09285c-509.15543,7.17707 -971.49196,-64.59361 -1398.71433,-215.31202l-0.00002,0zm5518.77663,114.83307l52.67124,-566.98833l-11.70473,-21.5312l0,21.5312c-228.24209,444.97817 -602.79321,667.46726 -1117.80099,667.46726c-743.24987,0 -1117.80099,-394.73871 -1117.80099,-1191.39319c0,-480.86351 175.57084,-846.89395 515.00778,-1105.26838c345.28931,-258.37443 784.2164,-387.56163 1322.63364,-387.56163c152.16139,0 356.99404,7.17707 620.35029,35.88534c11.70473,-35.88534 11.70473,-93.30188 11.70473,-165.07256c0,-150.71841 -52.67124,-279.90563 -169.71847,-373.20751c-111.19486,-100.47895 -257.50389,-150.71841 -444.77944,-150.71841c-380.40348,0 -743.24987,107.656 -1076.83446,322.96803l111.19486,-1033.4977c374.55112,-150.71841 784.2164,-229.66616 1223.14349,-229.66616c433.07473,0 778.36405,107.656 1047.57265,337.32217c269.20862,222.48909 397.96056,574.16539 397.96056,1047.85184c0,222.48909 -58.52361,645.93607 -175.57084,1263.16387c-122.89958,624.40487 -204.83265,1133.97665 -245.79917,1528.71535l-942.23015,0l0,0.00002zm-1106.09626,-1248.80972c0,100.47895 35.11416,193.78082 111.19486,279.90563c70.22834,86.12481 163.86612,122.01015 280.91334,122.01015c239.94681,0 433.07473,-86.12481 579.38375,-265.55149c152.16139,-179.42668 245.79917,-409.09285 292.61805,-696.17553c-64.37597,-14.35414 -169.71847,-21.5312 -310.17515,-21.5312c-275.06097,-14.35414 -503.30306,35.88534 -684.72626,143.54134c-175.57084,114.83307 -269.20862,258.37443 -269.20862,437.80112l0.00002,-0.00002z" fill="black" fill-rule="nonzero" id="svg_1"/>
    <ellipse stroke="null" class="fil1" cx="7876.12637" cy="13557.8766" rx="1070.9821" ry="1421.05935" fill="black" id="svg_2"/>
    <path stroke="null" class="fil2" d="m7050.94344,13988.50064c-29.26181,265.55149 76.0807,523.92592 275.06097,674.64434c122.89958,93.30188 280.91334,150.71841 444.77944,150.71841c93.63778,0 140.45666,0 234.09446,-21.5312c52.67124,-14.35414 76.0807,-21.5312 122.89958,-35.88534c11.70473,-7.17707 23.40945,-14.35414 35.11416,-14.35414c11.70473,-7.17707 23.40945,-14.35414 35.11416,-21.5312c11.70473,-7.17707 23.40945,-7.17707 35.11416,-14.35414c76.0807,-43.06241 81.93305,-50.23947 146.30903,-100.47895c5.85236,-7.17707 5.85236,-7.17707 11.70473,-14.35414c35.11416,-28.70827 52.67124,-43.06241 81.93305,-78.94773c64.37597,-64.59361 122.89958,-143.54134 158.01375,-222.48909c5.85236,-14.35414 11.70473,-21.5312 17.55708,-35.88534c128.75195,-294.25976 87.78542,-566.98833 -11.70473,-811.00862l-23.40945,-57.41654c-17.55708,-50.23947 -58.52361,-122.01015 -76.0807,-165.07256l-40.96653,-86.12481c-23.40945,-43.06241 -81.93305,-172.24961 -105.3425,-222.48909l-58.52361,-136.36429c-64.37597,-150.71841 -163.86612,-459.33231 -198.98028,-610.05073l-23.40945,-100.47895c-5.85236,-7.17707 -5.85236,-21.5312 -11.70473,-28.70827l-5.85236,0l-122.89958,251.19736c-23.40945,50.23947 -64.37597,143.54134 -93.63778,186.60375l-35.11416,57.41654c-17.55708,50.23947 -134.60431,244.02029 -169.71847,294.25976c-11.70473,7.17707 -11.70473,14.35414 -23.40945,28.70827c-40.96653,71.77068 -152.16139,229.66616 -204.83265,301.43683l-187.27555,279.90563c-93.63778,157.89549 -181.4232,322.96803 -204.83265,552.63419l0.00005,0.00005z" fill="#FEFEFE" id="svg_3"/>
    <!-- Additional SVG shapes here -->
   </g>
  </g>
 </g>
</svg>