<?xml version="1.0" encoding="UTF-8"?>
<!DOCTYPE svg PUBLIC "-//W3C//DTD SVG 1.1//EN" "http://www.w3.org/Graphics/SVG/1.1/DTD/svg11.dtd">
<!-- Creator: CorelDRAW X7 -->
<svg xmlns="http://www.w3.org/2000/svg" width="210mm" height="297mm" viewBox="0 0 21000 29700">
  <defs>
    <style type="text/css">
      .fil3 { fill: black; }
      .fil1 { fill: black; }
      .fil2 { fill: #FEFEFE; }
      .fil0 { fill: black; fill-rule: nonzero; }
    </style>
  </defs>
  <g id="Layer_1">
    <g id="Group_2089111108544">
      <path class="fil0" d="M8707 12820l163 -763 255 0 157 529 2 0 107 -529 192 0 -161 763 -254 0 -160 -528 -2 0 -106 528 -193 0zm1332 -330c0,-33 -8,-60 -24,-82 -17,-22 -43,-33 -78,-33 -46,0 -83,20 -111,61 -29,40 -44,84 -44,133 0,39 10,70 29,93 20,23 46,35 78,34 46,0 83,-18 110,-55 27,-36 40,-87 40,-151zm204 2c0,114 -33,199 -100,256 -66,57 -155,86 -268,86 -100,0 -174,-24 -223,-73 -49,-48 -73,-110 -73,-188 0,-100 33,-181 101,-243 67,-62 156,-92 266,-92 94,0 166,24 219,71 52,48 78,109 78,183zm26 312l39 -134c51,21 104,32 160,32 74,0 110,-16 110,-50 0,-15 -8,-27 -24,-36 -16,-9 -35,-18 -58,-26 -23,-7 -46,-16 -70,-27 -23,-11 -43,-28 -59,-51 -16,-23 -24,-52 -24,-87 0,-43 15,-78 46,-108 30,-29 66,-49 108,-61 42,-12 87,-18 134,-18 56,0 119,11 189,34l-41 129c-52,-22 -104,-32 -158,-32 -61,0 -92,16 -92,49 0,14 13,27 38,39 26,12 54,23 85,32 31,10 59,26 85,49 25,23 38,50 38,82 0,68 -25,120 -75,157 -50,36 -114,55 -192,57 -86,1 -166,-9 -239,-30zm547 0l39 -134c50,21 104,32 160,32 73,0 110,-16 110,-50 0,-15 -8,-27 -24,-36 -16,-9 -35,-18 -58,-26 -23,-7 -46,-16 -70,-27 -23,-11 -43,-28 -59,-51 -16,-23 -24,-52 -24,-87 0,-43 15,-78 45,-108 31,-29 67,-49 109,-61 42,-12 86,-18 134,-18 56,0 119,11 189,34l-42 129c-51,-22 -103,-32 -157,-32 -61,0 -92,16 -92,49 0,14 13,27 38,39 26,12 54,23 85,32 31,10 59,26 85,49 25,23 38,50 38,82 0,68 -25,120 -75,157 -50,36 -114,55 -192,57 -87,1 -166,-9 -239,-30zm943 16l9 -79 -2 -3 0 3c-39,62 -103,93 -191,93 -127,0 -191,-55 -191,-166 0,-67 30,-118 88,-154 59,-36 134,-54 226,-54 26,0 61,1 106,5 2,-5 2,-13 2,-23 0,-21 -9,-39 -29,-52 -19,-14 -44,-21 -76,-21 -65,0 -127,15 -184,45l19 -144c64,-21 134,-32 209,-32 74,0 133,15 179,47 46,31 68,80 68,146 0,31 -10,90 -30,176 -21,87 -35,158 -42,213l-161 0zm-189 -174c0,14 6,27 19,39 12,12 28,17 48,17 41,0 74,-12 99,-37 26,-25 42,-57 50,-97 -11,-2 -29,-3 -53,-3 -47,-2 -86,5 -117,20 -30,16 -46,36 -46,61z"/>
      <ellipse class="fil1" cx="9905" cy="12542" rx="183" ry="198"/>
      <path class="fil2" d="M9764 12602c-5,37 13,73 47,94 21,13 48,21 76,21 16,0 24,0 40,-3 9,-2 13,-3 21,-5 2,-1 4,-2 6,-2 2,-1 4,-2 6,-3 2,-1 4,-1 6,-2 13,-6 14,-7 25,-14 1,-1 1,-1 2,-2 6,-4 9,-6 14,-11 11,-9 21,-20 27,-31 1,-2 2,-3 3,-5 22,-41 15,-79 -2,-113l-4 -8c-3,-7 -10,-17 -13,-23l-7 -12c-4,-6 -14,-24 -18,-31l-10 -19c-11,-21 -28,-64 -34,-85l-4 -14c-1,-1 -1,-3 -2,-4l-1 0 -21 35c-4,7 -11,20 -16,26l-6 8c-3,7 -23,34 -29,41 -2,1 -2,2 -4,4 -7,10 -26,32 -35,42l-32 39c-16,22 -31,45 -35,77z"/>
      <!-- Additional SVG shapes here -->
    </g>
  </g>
</svg>

