<?xml version="1.0" encoding="UTF-8"?>
<!DOCTYPE svg PUBLIC "-//W3C//DTD SVG 1.1//EN" "http://www.w3.org/Graphics/SVG/1.1/DTD/svg11.dtd">
<!-- Creator: CorelDRAW X7 -->
<svg xmlns="http://www.w3.org/2000/svg" xml:space="preserve" width="210mm" height="297mm" version="1.1" style="shape-rendering:geometricPrecision; text-rendering:geometricPrecision; image-rendering:optimizeQuality; fill-rule:evenodd; clip-rule:evenodd"
viewBox="0 0 21000 29700"
 xmlns:xlink="http://www.w3.org/1999/xlink">
 <defs>
  <style type="text/css">
   <![CDATA[
    .fil3 {fill:black}
    .fil1 {fill:black}
    .fil2 {fill:#FEFEFE}
    .fil0 {fill:black;fill-rule:nonzero}
   ]]>
  </style>
 </defs>
 <g id="Слой_x0020_1">
  <metadata id="CorelCorpID_0Corel-Layer"/>
  <g id="_2089111108544">
   <path class="fil0" d="M8707 12820l163 -763 255 0 157 529 2 0 107 -529 192 0 -161 763 -254 0 -160 -528 -2 0 -106 528 -193 0zm1332 -330c0,-33 -8,-60 -24,-82 -17,-22 -43,-33 -78,-33 -46,0 -83,20 -111,61 -29,40 -44,84 -44,133 0,39 10,70 29,93 20,23 46,35 78,34 46,0 83,-18 110,-55 27,-36 40,-87 40,-151zm204 2c0,114 -33,199 -100,256 -66,57 -155,86 -268,86 -100,0 -174,-24 -223,-73 -49,-48 -73,-110 -73,-188 0,-100 33,-181 101,-243 67,-62 156,-92 266,-92 94,0 166,24 219,71 52,48 78,109 78,183zm26 312l39 -134c51,21 104,32 160,32 74,0 110,-16 110,-50 0,-15 -8,-27 -24,-36 -16,-9 -35,-18 -58,-26 -23,-7 -46,-16 -70,-27 -23,-11 -43,-28 -59,-51 -16,-23 -24,-52 -24,-87 0,-43 15,-78 46,-108 30,-29 66,-49 108,-61 42,-12 87,-18 134,-18 56,0 119,11 189,34l-41 129c-52,-22 -104,-32 -158,-32 -61,0 -92,16 -92,49 0,14 13,27 38,39 26,12 54,23 85,32 31,10 59,26 85,49 25,23 38,50 38,82 0,68 -25,120 -75,157 -50,36 -114,55 -192,57 -86,1 -166,-9 -239,-30zm547 0l39 -134c50,21 104,32 160,32 73,0 110,-16 110,-50 0,-15 -8,-27 -24,-36 -16,-9 -35,-18 -58,-26 -23,-7 -46,-16 -70,-27 -23,-11 -43,-28 -59,-51 -16,-23 -24,-52 -24,-87 0,-43 15,-78 45,-108 31,-29 67,-49 109,-61 42,-12 86,-18 134,-18 56,0 119,11 189,34l-42 129c-51,-22 -103,-32 -157,-32 -61,0 -92,16 -92,49 0,14 13,27 38,39 26,12 54,23 85,32 31,10 59,26 85,49 25,23 38,50 38,82 0,68 -25,120 -75,157 -50,36 -114,55 -192,57 -87,1 -166,-9 -239,-30zm943 16l9 -79 -2 -3 0 3c-39,62 -103,93 -191,93 -127,0 -191,-55 -191,-166 0,-67 30,-118 88,-154 59,-36 134,-54 226,-54 26,0 61,1 106,5 2,-5 2,-13 2,-23 0,-21 -9,-39 -29,-52 -19,-14 -44,-21 -76,-21 -65,0 -127,15 -184,45l19 -144c64,-21 134,-32 209,-32 74,0 133,15 179,47 46,31 68,80 68,146 0,31 -10,90 -30,176 -21,87 -35,158 -42,213l-161 0zm-189 -174c0,14 6,27 19,39 12,12 28,17 48,17 41,0 74,-12 99,-37 26,-25 42,-57 50,-97 -11,-2 -29,-3 -53,-3 -47,-2 -86,5 -117,20 -30,16 -46,36 -46,61z"/>
   <ellipse class="fil1" cx="9905" cy="12542" rx="183" ry="198"/>
   <path class="fil2" d="M9764 12602c-5,37 13,73 47,94 21,13 48,21 76,21 16,0 24,0 40,-3 9,-2 13,-3 21,-5 2,-1 4,-2 6,-2 2,-1 4,-2 6,-3 2,-1 4,-1 6,-2 13,-6 14,-7 25,-14 1,-1 1,-1 2,-2 6,-4 9,-6 14,-11 11,-9 21,-20 27,-31 1,-2 2,-3 3,-5 22,-41 15,-79 -2,-113l-4 -8c-3,-7 -10,-17 -13,-23l-7 -12c-4,-6 -14,-24 -18,-31l-10 -19c-11,-21 -28,-64 -34,-85l-4 -14c-1,-1 -1,-3 -2,-4l-1 0 -21 35c-4,7 -11,20 -16,26l-6 8c-3,7 -23,34 -29,41 -2,1 -2,2 -4,4 -7,10 -26,32 -35,42l-32 39c-16,22 -31,45 -35,77z"/>
   <path class="fil3" d="M10134 11592l0 1c0,0 0,0 0,-1z"/>
   <polygon class="fil3" points="10132,11601 10133,11597 "/>
   <path class="fil3" d="M10132 11601c0,11 0,5 -3,7 0,-10 0,-4 3,-7z"/>
   <path class="fil3" d="M9136 11946c225,-120 557,-102 785,-10 46,18 111,51 153,80l65 51c5,6 8,10 14,15 9,6 8,4 15,13 4,5 25,30 29,32 -1,-15 -25,-67 -33,-79 -8,-13 -13,-24 -21,-37 -32,-54 -82,-114 -128,-157l-63 -50c-64,-48 -152,-90 -231,-112 -61,-17 -121,-29 -193,-35 -19,-1 -36,0 -53,-2 -18,-2 -41,0 -55,1 -18,3 -37,0 -55,2 -51,8 -87,4 -149,22 -22,6 -26,4 -31,27l-49 239zm-87 1404c77,0 187,-3 259,-24 10,-3 18,-7 27,-8l26 -126c5,-25 26,-113 26,-130 -9,2 -26,13 -37,18 -76,32 -197,63 -278,62 -20,0 -32,3 -55,3 -212,0 -453,-56 -615,-192 -14,-12 -37,-31 -47,-45 -4,-4 -27,-29 -30,-31 13,53 73,149 107,191 37,46 53,59 92,95 34,32 69,54 109,79 115,70 279,108 416,108z"/>
   <path class="fil3" d="M9055 13408c-64,0 -122,-9 -182,-23 -14,-4 -35,-11 -49,-12 -5,10 -10,48 -14,61 -6,28 -35,176 -41,187 46,11 160,29 211,29 31,0 73,-5 101,-8 36,-4 66,-8 98,-15 99,-20 202,-52 292,-97 15,-7 24,-14 38,-20 59,-30 163,-104 211,-149 28,-25 79,-74 100,-100l50 -62c17,-20 33,-42 48,-65 22,-33 114,-183 118,-219l-30 36c-28,33 -97,102 -127,127 -42,35 -85,69 -131,100 -74,50 -155,97 -239,130 -46,18 -87,34 -136,48 -92,27 -219,52 -318,52z"/>
   <path class="fil3" d="M8487 12090l13 -13c6,-6 6,-8 12,-14 6,-6 6,-8 12,-14 5,-6 9,-9 14,-15 10,-12 15,-17 26,-29 10,-9 18,-17 27,-27 102,-102 224,-183 352,-248 14,-7 25,-10 38,-17 106,-53 266,-91 383,-107l101 -9c30,-3 119,11 147,16 17,3 29,6 45,10 15,4 29,8 44,11 2,-28 51,-231 52,-251 -24,0 -118,-26 -211,-26 -193,0 -400,64 -564,160l-101 68 -90 76c-17,17 -26,22 -43,40 -6,7 -7,9 -13,16l-53 59c-34,38 -91,119 -116,164 -14,25 -26,46 -40,73l-26 57c-4,7 -6,13 -9,20z"/>
  </g>
 </g>
</svg>
