<?xml version="1.0" encoding="UTF-8"?>
<!DOCTYPE svg PUBLIC "-//W3C//DTD SVG 1.1//EN" "http://www.w3.org/Graphics/SVG/1.1/DTD/svg11.dtd">
<!-- Creator: CorelDRAW X7 -->
<svg xmlns="http://www.w3.org/2000/svg" xml:space="preserve" width="29.1798mm" height="23.6713mm" version="1.1" style="shape-rendering:geometricPrecision; text-rendering:geometricPrecision; image-rendering:optimizeQuality; fill-rule:evenodd; clip-rule:evenodd"
viewBox="0 0 291 236"
 xmlns:xlink="http://www.w3.org/1999/xlink">
 <defs>
  <style type="text/css">
   <![CDATA[
    .fil0 {fill:#1F56AE}
    .fil1 {fill:#EB1B23}
   ]]>
  </style>
 </defs>
 <g id="Слой_x0020_1">
  <metadata id="CorelCorpID_0Corel-Layer"/>
  <g id="_1717049466224">
   <path class="fil0" d="M270 130c0,3 -2,4 -4,5 -5,2 -14,2 -20,0 -1,-1 -2,-1 -3,-2 0,3 -3,10 -3,12 3,1 5,2 8,2 17,3 38,0 38,-19 0,-10 -7,-13 -15,-16 -1,-1 -3,-2 -5,-3 -4,-2 -3,-7 2,-8 4,-2 12,-1 16,0 2,1 3,1 3,1 1,-1 4,-9 4,-11 -4,-2 -12,-3 -18,-3 -28,0 -28,22 -23,28 7,8 20,7 20,14z"/>
   <path class="fil0" d="M120 120c0,5 1,9 2,13 8,16 27,17 41,13 2,0 2,0 2,-5 1,-3 1,-5 1,-8 -9,5 -30,7 -30,-12 0,-3 1,-7 2,-9 6,-14 22,-15 34,-9 0,-1 1,-1 1,-3 1,-2 2,-7 3,-9 -2,0 -4,-1 -5,-1 -9,-2 -21,-3 -30,1 -4,1 -8,3 -11,6 -6,6 -10,14 -10,23z"/>
   <path class="fil0" d="M0 147l16 0c0,-2 2,-10 2,-12 1,-4 2,-7 2,-11l23 0c0,-2 2,-10 2,-11l-22 0c0,-2 2,-10 2,-13l24 0c0,-1 0,-3 1,-5 0,-2 1,-4 1,-6l-38 0c-1,0 -1,2 -1,3l-3 11c-1,5 -2,10 -3,15l-6 29z"/>
   <path class="fil0" d="M176 147l16 0 3 -19c1,-2 1,-6 2,-6l17 0c0,2 -1,10 -2,13l-3 12 16 0c2,-9 4,-20 6,-29l6 -29 -15 0c-1,0 -1,3 -2,5 0,3 -3,16 -3,17l-18 0c0,-1 1,-3 1,-5l2 -11c0,-1 1,-5 1,-6l-15 0 -12 58z"/>
   <path class="fil0" d="M55 130c0,23 32,21 41,13 1,-1 1,-1 2,-1 7,-8 9,-23 11,-33l4 -20 -15 0c0,1 0,2 -1,4l-5 23c-1,7 -3,21 -13,21 -11,0 -8,-12 -6,-19 0,-3 5,-28 6,-29l-16 0c0,2 -2,8 -2,10 -1,4 -2,7 -2,10 -2,7 -4,14 -4,21z"/>
  </g>
  <path class="fil1" d="M132 61c23,-13 57,-11 80,-1 5,1 12,5 16,8l7 5c0,1 1,1 1,2 1,0 1,0 2,1 0,1 2,3 3,3 0,-1 -3,-7 -4,-8 0,-1 -1,-2 -2,-4 -3,-5 -8,-11 -13,-16l-6 -5c-7,-5 -16,-9 -24,-12 -6,-1 -13,-2 -20,-3 -2,0 -4,0 -5,0 -2,-1 -5,0 -6,0 -2,0 -4,0 -6,0 -5,1 -9,0 -15,2 -2,1 -3,1 -3,3l-5 25zm-9 144c8,0 19,0 26,-2 1,-1 2,-1 3,-1l3 -13c0,-3 2,-12 2,-13 -1,0 -2,1 -3,1 -8,4 -21,7 -29,7 -2,0 -3,0 -6,0 -22,0 -46,-6 -63,-20 -1,-1 -4,-3 -5,-4 0,-1 -3,-3 -3,-3 1,5 8,15 11,19 4,5 6,6 10,10 3,3 7,6 11,8 12,7 29,11 43,11z"/>
  <path class="fil0" d="M123 211c-6,0 -12,-1 -18,-2 -2,-1 -4,-1 -6,-1 0,1 -1,5 -1,6 -1,3 -4,18 -4,19 5,1 16,3 22,3 3,0 7,0 10,-1 4,0 7,-1 10,-1 10,-2 21,-6 30,-10 2,-1 3,-2 4,-2 6,-3 17,-11 22,-16 3,-2 8,-7 10,-10l5 -6c2,-2 4,-5 5,-7 2,-3 12,-19 12,-23l-3 4c-3,4 -10,11 -13,13 -4,4 -9,7 -13,11 -8,5 -16,9 -25,13 -5,2 -9,3 -14,5 -9,3 -22,5 -33,5z"/>
  <path class="fil0" d="M65 75l1 -1c1,-1 1,-1 1,-1 1,-1 1,-1 2,-2 0,0 0,-1 1,-1 1,-2 2,-2 3,-3 1,-1 1,-2 3,-3 10,-11 23,-19 36,-26 1,0 2,-1 4,-1 11,-6 27,-10 39,-11l10 -1c4,-1 13,1 16,1 1,1 3,1 4,1 2,1 3,1 5,2 0,-3 5,-24 5,-26 -2,0 -12,-3 -22,-3 -19,0 -41,7 -58,16l-10 8 -9 7c-2,2 -3,3 -5,4 0,1 0,1 -1,2l-6 6c-3,4 -9,12 -12,17 -1,3 -2,5 -4,8l-2 5c-1,1 -1,2 -1,2z"/>
 </g>
</svg>
