<svg width="3700" height="2350" xmlns="http://www.w3.org/2000/svg" clip-rule="evenodd" fill-rule="evenodd" version="1.1" xml:space="preserve">
  <defs>
    <style type="text/css">
      .fil3 {fill:black;}
      .fil1 {fill:black;}
      .fil2 {fill:#FEFEFE;}
      .fil0 {fill:black;fill-rule:nonzero;}
    </style>
  </defs>
  <g class="layer">
    <title>Layer 1</title>
    <g id="Слой_x0020_1">
      <metadata id="CorelCorpID_0Corel-Layer"/>
      <g id="_2089111108544">
        <path class="fil0" d="m387,1490l163,-763l255,0l157,529l2,0l107,-529l192,0l-161,763l-254,0l-160,-528l-2,0l-106,528l-193,0zm1332,-330c0,-33 -8,-60 -24,-82c-17,-22 -43,-33 -78,-33c-46,0 -83,20 -111,61c-29,40 -44,84 -44,133c0,39 10,70 29,93c20,23 46,35 78,34c46,0 83,-18 110,-55c27,-36 40,-87 40,-151zm204,2c0,114 -33,199 -100,256c-66,57 -155,86 -268,86c-100,0 -174,-24 -223,-73c-49,-48 -73,-110 -73,-188c0,-100 33,-181 101,-243c67,-62 156,-92 266,-92c94,0 166,24 219,71c52,48 78,109 78,183zm26,312l39,-134c51,21 104,32 160,32c74,0 110,-16 110,-50c0,-15 -8,-27 -24,-36c-16,-9 -35,-18 -58,-26c-23,-7 -46,-16 -70,-27c-23,-11 -43,-28 -59,-51c-16,-23 -24,-52 -24,-87c0,-43 15,-78 46,-108c30,-29 66,-49 108,-61c42,-12 87,-18 134,-18c56,0 119,11 189,34l-41,129c-52,-22 -104,-32 -158,-32c-61,0 -92,16 -92,49c0,14 13,27 38,39c26,12 54,23 85,32c31,10 59,26 85,49c25,23 38,50 38,82c0,68 -25,120 -75,157c-50,36 -114,55 -192,57c-86,1 -166,-9 -239,-30zm547,0l39,-134c50,21 104,32 160,32c73,0 110,-16 110,-50c0,-15 -8,-27 -24,-36c-16,-9 -35,-18 -58,-26c-23,-7 -46,-16 -70,-27c-23,-11 -43,-28 -59,-51c-16,-23 -24,-52 -24,-87c0,-43 15,-78 45,-108c31,-29 67,-49 109,-61c42,-12 86,-18 134,-18c56,0 119,11 189,34l-42,129c-51,-22 -103,-32 -157,-32c-61,0 -92,16 -92,49c0,14 13,27 38,39c26,12 54,23 85,32c31,10 59,26 85,49c25,23 38,50 38,82c0,68 -25,120 -75,157c-50,36 -114,55 -192,57c-87,1 -166,-9 -239,-30zm943,16l9,-79l-2,-3l0,3c-39,62 -103,93 -191,93c-127,0 -191,-55 -191,-166c0,-67 30,-118 88,-154c59,-36 134,-54 226,-54c26,0 61,1 106,5c2,-5 2,-13 2,-23c0,-21 -9,-39 -29,-52c-19,-14 -44,-21 -76,-21c-65,0 -127,15 -184,45l19,-144c64,-21 134,-32 209,-32c74,0 133,15 179,47c46,31 68,80 68,146c0,31 -10,90 -30,176c-21,87 -35,158 -42,213l-161,0zm-189,-174c0,14 6,27 19,39c12,12 28,17 48,17c41,0 74,-12 99,-37c26,-25 42,-57 50,-97c-11,-2 -29,-3 -53,-3c-47,-2 -86,5 -117,20c-30,16 -46,36 -46,61z" id="svg_1"/>
        <ellipse class="fil1" cx="1585" cy="1212" id="svg_2" rx="183" ry="198"/>
        <path class="fil2" d="m1444,1272c-5,37 13,73 47,94c21,13 48,21 76,21c16,0 24,0 40,-3c9,-2 13,-3 21,-5c2,-1 4,-2 6,-2c2,-1 4,-2 6,-3c2,-1 4,-1 6,-2c13,-6 14,-7 25,-14c1,-1 1,-1 2,-2c6,-4 9,-6 14,-11c11,-9 21,-20 27,-31c1,-2 2,-3 3,-5c22,-41 15,-79 -2,-113l-4,-8c-3,-7 -10,-17 -13,-23l-7,-12c-4,-6 -14,-24 -18,-31l-10,-19c-11,-21 -28,-64 -34,-85l-4,-14c-1,-1 -1,-3 -2,-4l-1,0l-21,35c-4,7 -11,20 -16,26l-6,8c-3,7 -23,34 -29,41c-2,1 -2,2 -4,4c-7,10 -26,32 -35,42l-32,39c-16,22 -31,45 -35,77z" id="svg_3"/>
        <path class="fil3" d="m1814,262l0,1c0,0 0,0 0,-1z" id="svg_4"/>
        <polygon class="fil3" id="svg_5" points="1812,271 1813,267 "/>
        <path class="fil3" d="m1812,271c0,11 0,5 -3,7c0,-10 0,-4 3,-7z" id="svg_6"/>
        <path class="fil3" d="m816,616c225,-120 557,-102 785,-10c46,18 111,51 153,80l65,51c5,6 8,10 14,15c9,6 8,4 15,13c4,5 25,30 29,32c-1,-15 -25,-67 -33,-79c-8,-13 -13,-24 -21,-37c-32,-54 -45,-90 -88,-130c-46,-38 -98,-64 -158,-82c-160,-46 -333,-30 -477,26l-130,52c-22,8 -42,23 -60,43c-22,28 -38,63 -56,95c-31,52 -60,89 -92,132c-32,44 -51,101 -60,161c0,10 0,20 -1,30c-2,2 -5,4 -8,4c-4,0 -6,-2 -10,-4c-1,-10 -2,-21 -2,-32c2,-77 23,-141 51,-202c17,-34 32,-66 54,-95c28,-37 61,-69 101,-91z" id="svg_7"/>
      </g>
    </g>
  </g>
</svg>
