<?xml version="1.0" standalone="no"?>
<!DOCTYPE svg PUBLIC "-//W3C//DTD SVG 1.0//EN" "http://www.w3.org/TR/2001/REC-SVG-20010904/DTD/svg10.dtd">
<svg xmlns="http://www.w3.org/2000/svg" xmlns:xlink="http://www.w3.org/1999/xlink" id="body_1" width="793" height="1122">

<g transform="matrix(1.3333334 0 0 1.3333334 0 0)">
	<path  d="M0 0L594.75 0L594.75 841.5L0 841.5z" stroke="none"  fill="#FFFFFF" fill-rule="evenodd" />
	<g transform="matrix(0.75 0 0 0.75 -0 -0)">
		<g>
			<g transform="matrix(1 0 0 1 396.8504 561.2598)">
				<g>
					<g>
						<g>
							<g>
							</g>
						</g>
					</g>
				</g>
				<g>
					<g>
						<path  d="M-67.750015 -76.70654L-61.59235 -105.55378L-61.59235 -105.55378L-51.962334 -105.55378L-51.962334 -105.55378L-46.052402 -85.55054L-46.052402 -85.55054L-45.969822 -85.55054L-45.969822 -85.55054L-41.919426 -105.55378L-41.919426 -105.55378L-34.64543 -105.55378L-34.64543 -105.55378L-40.762314 -76.70654L-40.762314 -76.70654L-50.350533 -76.70654L-50.350533 -76.70654L-56.384842 -96.667984L-56.384842 -96.667984L-56.46742 -96.667984L-56.46742 -96.667984L-60.476017 -76.70654L-60.476017 -76.70654L-67.750015 -76.70654M-17.412125 -89.18805C -17.412125 -90.427734 -17.722046 -91.46047 -18.341888 -92.28727C -18.961735 -93.114075 -19.946552 -93.52696 -21.296345 -93.52696C -23.004997 -93.52696 -24.40372 -92.769485 -25.491508 -91.25454C -26.580315 -89.73857 -27.1237 -88.058464 -27.1237 -86.21218C -27.1237 -84.75229 -26.758724 -83.5809 -26.028778 -82.69905C -25.298828 -81.8172 -24.314007 -81.39004 -23.074322 -81.417564C -21.338146 -81.417564 -19.960827 -82.106735 -18.941345 -83.484055C -17.921864 -84.86239 -17.412125 -86.7627 -17.412125 -89.18805M-9.725239 -89.10547C -9.725239 -84.80734 -10.97818 -81.58374 -13.486103 -79.43468C -15.993004 -77.28561 -19.368507 -76.211075 -23.611588 -76.211075C -27.385708 -76.211075 -30.196415 -77.11943 -32.042694 -78.93819C -33.887955 -80.75694 -34.811604 -83.12621 -34.811604 -86.04703C -34.811604 -89.84867 -33.544388 -92.91425 -31.008942 -95.242744C -28.47451 -97.57022 -25.113281 -98.73447 -20.925255 -98.73447C -17.397846 -98.73447 -14.64933 -97.83223 -12.679691 -96.02775C -10.710056 -94.22327 -9.725239 -91.91516 -9.725239 -89.10547M-8.732265 -77.326385L-7.2448387 -82.40952C -5.3435097 -81.58374 -3.3320694 -81.16983 -1.2105331 -81.16983C 1.5726547 -81.16983 2.9632263 -81.80395 2.9632263 -83.07116C 2.9632263 -83.6227 2.6604385 -84.07637 2.054863 -84.43523C 1.4482727 -84.79307 0.71118927 -85.11726 -0.15638733 -85.40578C -1.0249863 -85.695305 -1.899704 -86.039894 -2.7815552 -86.43953C -3.662384 -86.839165 -4.406601 -87.4794 -5.013195 -88.36125C -5.618767 -89.2431 -5.9225693 -90.34516 -5.9225693 -91.66743C -5.9225693 -93.265976 -5.350643 -94.61577 -4.206787 -95.71782C -3.0639496 -96.819885 -1.6998825 -97.59775 -0.115608215 -98.05244C 1.4686661 -98.507126 3.156929 -98.73447 4.947136 -98.73447C 7.068672 -98.73447 9.452225 -98.307304 12.097778 -97.454L12.097778 -97.454L10.526756 -92.576805C 8.597893 -93.376076 6.613983 -93.77571 4.5750275 -93.77571C 2.2607956 -93.77571 1.1036911 -93.15587 1.1036911 -91.91516C 1.1036911 -91.392166 1.585907 -90.90282 2.550331 -90.44813C 3.5147629 -89.99344 4.582161 -89.587685 5.75354 -89.22883C 6.9239044 -88.87099 7.992325 -88.258286 8.956757 -87.38969C 9.920158 -86.52211 10.402374 -85.48224 10.402374 -84.27007C 10.402374 -81.7071 9.459358 -79.73746 7.5712814 -78.36014C 5.6842194 -76.981804 3.2670288 -76.26613 0.31868744 -76.211075C -2.959961 -76.15501 -5.977623 -76.527115 -8.732265 -77.326385M11.932617 -77.326385L13.420036 -82.40952C 15.321373 -81.58374 17.33281 -81.16983 19.454346 -81.16983C 22.237534 -81.16983 23.628105 -81.80395 23.628105 -83.07116C 23.628105 -83.6227 23.32531 -84.07637 22.719742 -84.43523C 22.11316 -84.79307 21.376068 -85.11726 20.508492 -85.40578C 19.639893 -85.695305 18.765175 -86.039894 17.883324 -86.43953C 17.002495 -86.839165 16.258278 -87.4794 15.651688 -88.36125C 15.046112 -89.2431 14.74231 -90.34516 14.74231 -91.66743C 14.74231 -93.265976 15.314232 -94.61577 16.458092 -95.71782C 17.60093 -96.819885 18.965004 -97.59775 20.54927 -98.05244C 22.133545 -98.507126 23.8218 -98.73447 25.612007 -98.73447C 27.733551 -98.73447 30.117096 -98.307304 32.762657 -97.454L32.762657 -97.454L31.191635 -92.576805C 29.262772 -93.376076 27.278862 -93.77571 25.239906 -93.77571C 22.925682 -93.77571 21.76857 -93.15587 21.76857 -91.91516C 21.76857 -91.392166 22.250786 -90.90282 23.215218 -90.44813C 24.179642 -89.99344 25.247032 -89.587685 26.418419 -89.22883C 27.58879 -88.87099 28.657204 -88.258286 29.621628 -87.38969C 30.585037 -86.52211 31.067253 -85.48224 31.067253 -84.27007C 31.067253 -81.7071 30.124237 -79.73746 28.236153 -78.36014C 26.349098 -76.981804 23.931908 -76.26613 20.983566 -76.211075C 17.704918 -76.15501 14.687256 -76.527115 11.932617 -77.326385M47.60018 -76.70654L47.93049 -79.72319L47.93049 -79.72319L47.847916 -79.80576L47.847916 -79.80576L47.847916 -79.72319C 46.359474 -77.38144 43.949417 -76.211075 40.614693 -76.211075C 35.8211 -76.211075 33.424294 -78.29082 33.424294 -82.45132C 33.424294 -84.98575 34.53247 -86.935 36.750862 -88.299065C 38.969254 -89.663124 41.813606 -90.34516 45.284935 -90.34516C 46.24936 -90.34516 47.585907 -90.27583 49.294548 -90.13821C 49.34961 -90.33089 49.377136 -90.62042 49.377136 -91.00578C 49.377136 -91.80505 49.01216 -92.4667 48.281197 -92.98969C 47.551247 -93.5137 46.593956 -93.77571 45.409317 -93.77571C 42.92993 -93.77571 40.60144 -93.21092 38.424843 -92.08134L38.424843 -92.08134L39.169067 -97.49478C 41.5934 -98.32158 44.22467 -98.73447 47.061897 -98.73447C 49.845078 -98.73447 52.097107 -98.14215 53.82003 -96.95751C 55.54194 -95.77287 56.40238 -93.9266 56.40238 -91.41969C 56.40238 -90.26258 56.017014 -88.04419 55.24527 -84.76554C 54.47352 -81.48689 53.950523 -78.80056 53.67527 -76.70654L53.67527 -76.70654L47.60018 -76.70654M40.44954 -83.31889C 40.44954 -82.76838 40.684013 -82.27189 41.151962 -81.831474C 41.620926 -81.39004 42.226494 -81.16983 42.97071 -81.16983C 44.514206 -81.16983 45.76715 -81.638794 46.731575 -82.5757C 47.696007 -83.51158 48.315857 -84.738014 48.591118 -86.25398C 48.178223 -86.33656 47.51658 -86.37734 46.608223 -86.37734C 44.817 -86.43239 43.342827 -86.17039 42.185715 -85.59234C 41.02861 -85.013275 40.44954 -84.2558 40.44954 -83.31889" stroke="none"  fill="#000000" fill-rule="evenodd" />
					</g>
				</g>
				<g>
					<g>
						<path  d="M-15.595852 -87.2463C -15.595852 -84.595665 -16.898573 -82.136185 -19.011387 -80.79793C -20.06797 -80.128685 -21.270243 -79.77589 -22.494291 -79.77589C -23.71834 -79.77589 -24.920612 -80.128685 -25.977196 -80.79793C -28.090008 -82.136185 -29.39273 -84.595665 -29.39273 -87.2463C -29.39273 -89.896935 -28.090008 -92.35641 -25.977196 -93.69467C -24.920612 -94.363914 -23.71834 -94.71671 -22.494291 -94.71671C -21.270243 -94.71671 -20.06797 -94.363914 -19.011387 -93.69467C -16.898573 -92.35641 -15.595852 -89.896935 -15.595852 -87.2463z" stroke="none"  fill="#000000" fill-rule="evenodd" />
					</g>
				</g>
				<g>
					<g>
						<path  d="M-27.813797 -84.96509C -27.996128 -83.57472 -27.316704 -82.215225 -26.031902 -81.41789C -25.249313 -80.932236 -24.21018 -80.59929 -23.16693 -80.59929C -22.548235 -80.59929 -22.2662 -80.606186 -21.646029 -80.728516C -21.332157 -80.790375 -21.164871 -80.840454 -20.876554 -80.929565C -20.787954 -80.95695 -20.714012 -80.98823 -20.633091 -81.01372C -20.549585 -81.04003 -20.48391 -81.06421 -20.408628 -81.09914C -20.33017 -81.13555 -20.262054 -81.160965 -20.181202 -81.19791C -19.6812 -81.42618 -19.668707 -81.458565 -19.25565 -81.7072C -19.209146 -81.7352 -19.197468 -81.73901 -19.15128 -81.77309C -18.944254 -81.92566 -18.81786 -82.01564 -18.619452 -82.190056C -18.235601 -82.527565 -17.845911 -82.96014 -17.604078 -83.37312C -17.562887 -83.44353 -17.525372 -83.506294 -17.488901 -83.57386C -16.656786 -85.114914 -16.950298 -86.55229 -17.580301 -87.85169L-17.580301 -87.85169L-17.730972 -88.14351C -17.85658 -88.403885 -18.08954 -88.77624 -18.22812 -89.02487L-18.22812 -89.02487L-18.485157 -89.45929C -18.62296 -89.68494 -19.02372 -90.35884 -19.151947 -90.61855L-19.151947 -90.61855L-19.547176 -91.367004C -19.96752 -92.130264 -20.610126 -93.78557 -20.83383 -94.56361L-20.83383 -94.56361L-20.982975 -95.07721C -20.998207 -95.13188 -21.026106 -95.19913 -21.033648 -95.24768L-21.033648 -95.24768L-21.104448 -95.24768L-21.104448 -95.24768L-21.872108 -93.90387C -22.03304 -93.646576 -22.314003 -93.172745 -22.486904 -92.93556L-22.486904 -92.93556L-22.703024 -92.6176C -22.847107 -92.38928 -23.59855 -91.35387 -23.82748 -91.0836C -23.870432 -91.03294 -23.902271 -90.994194 -23.946455 -90.93451C -24.21928 -90.56593 -24.942604 -89.72221 -25.28049 -89.333725L-25.28049 -89.333725L-26.490387 -87.86125C -27.09591 -87.05083 -27.655533 -86.17197 -27.813797 -84.96509" stroke="none"  fill="#FEFEFE" fill-rule="evenodd" />
					</g>
				</g>
				<g>
					<g>
						<path  d="M-13.841782 -123.1207L-13.81636 -123.095276C -13.818085 -123.09674 -13.850342 -123.11215 -13.841782 -123.1207" stroke="none"  fill="#000000" fill-rule="evenodd" />
					</g>
				</g>
				<g>
					<g>
						<path  d="M-13.927322 -122.77878L-13.880402 -122.962555L-13.880402 -122.962555L-13.927322 -122.77878" stroke="none"  fill="#000000" fill-rule="evenodd" />
					</g>
				</g>
				<g>
					<g>
						<path  d="M-13.927322 -122.77878C -13.927322 -122.37262 -13.925369 -122.616516 -14.012863 -122.52219C -14.012863 -122.928345 -14.014816 -122.684204 -13.927322 -122.77878" stroke="none"  fill="#000000" fill-rule="evenodd" />
					</g>
				</g>
				<g>
					<g>
						<path  d="M-51.563637 -109.774864C -43.043938 -114.28295 -30.500736 -113.61655 -21.86778 -110.14961C -20.156042 -109.46232 -17.678875 -108.19496 -16.093704 -107.09455L-16.093704 -107.09455L-13.657688 -105.17039C -13.453762 -104.96305 -13.324718 -104.81158 -13.10207 -104.636116C -12.767857 -104.37262 -12.807934 -104.461586 -12.539791 -104.108505C -12.406727 -103.9332 -11.588844 -103.00856 -11.451294 -102.90784C -11.498329 -103.473045 -12.409355 -105.43527 -12.696373 -105.91384C -12.993916 -106.41005 -13.192272 -106.80831 -13.487179 -107.30312C -14.692654 -109.326004 -16.596561 -111.62043 -18.344196 -113.23701L-18.344196 -113.23701L-20.699442 -115.1327C -23.136227 -116.92272 -26.440252 -118.53852 -29.436064 -119.367386C -31.733133 -120.002846 -34.02819 -120.445206 -36.745182 -120.66909C -37.457233 -120.72789 -38.116367 -120.66987 -38.73125 -120.754036C -39.401836 -120.8461 -40.298164 -120.77384 -40.802418 -120.70468C -41.484608 -120.61122 -42.216 -120.7316 -42.906696 -120.62902C -44.839695 -120.342316 -46.17854 -120.497345 -48.526978 -119.8181C -49.342075 -119.582146 -49.522488 -119.65069 -49.687733 -118.79892L-49.687733 -118.79892L-51.563637 -109.774864M-54.83378 -56.691616C -51.949524 -56.691616 -47.76789 -56.8058 -45.05925 -57.599236C -44.68605 -57.708626 -44.374897 -57.86304 -44.042698 -57.890736L-44.042698 -57.890736L-43.05384 -62.678875C -42.862755 -63.60104 -42.080612 -66.95239 -42.080612 -67.59172C -42.422558 -67.500435 -43.0362 -67.090256 -43.466034 -66.90613C -46.319805 -65.68442 -50.9028 -64.51098 -53.962822 -64.54084C -54.742027 -64.54842 -55.17325 -64.43068 -56.032753 -64.43068C -64.081924 -64.43068 -73.17814 -66.56651 -79.28364 -71.7C -79.824715 -72.15489 -80.67664 -72.86508 -81.08836 -73.38341C -81.22313 -73.55315 -82.07366 -74.48799 -82.19296 -74.56783C -81.72429 -72.555786 -79.45105 -68.95656 -78.174866 -67.3587C -76.7681 -65.59685 -76.15321 -65.11194 -74.69832 -63.75035C -73.40636 -62.541325 -72.09304 -61.70565 -70.5775 -60.786118C -66.20245 -58.13149 -60.009064 -56.691616 -54.83378 -56.691616" stroke="#FFFEFE" stroke-width="0.030945273"  fill="#000000" fill-rule="evenodd" />
					</g>
				</g>
				<g>
					<g>
						<path  d="M-54.61577 -54.511692C -57.02735 -54.511692 -59.218575 -54.82917 -61.484074 -55.38233C -62.006275 -55.50983 -62.808697 -55.775784 -63.33585 -55.819736C -63.521202 -55.433395 -63.74107 -54.008663 -63.858982 -53.50892C -64.10638 -52.461876 -65.20292 -46.870415 -65.40685 -46.445686C -63.671913 -46.0414 -59.382133 -45.35564 -57.449753 -45.35564C -56.281235 -45.35564 -54.69314 -45.54131 -53.61515 -45.663097C -52.26084 -45.815945 -51.120193 -45.977955 -49.919518 -46.21856C -46.180714 -46.9682 -42.280067 -48.189297 -38.882427 -49.896378C -38.335617 -50.17116 -37.99119 -50.40186 -37.467155 -50.661343C -35.23862 -51.76391 -31.297894 -54.58332 -29.462372 -56.28158C -28.430817 -57.236084 -26.495815 -59.07486 -25.71428 -60.05456L-25.71428 -60.05456L-23.793518 -62.384747C -23.154018 -63.16302 -22.567001 -63.996372 -22.002712 -64.84488C -21.166557 -66.1025 -17.670055 -71.77241 -17.5554 -73.15071L-17.5554 -73.15071L-18.677807 -71.76591C -19.725296 -70.522064 -22.344196 -67.9199 -23.473682 -66.96988C -25.05872 -65.636765 -26.66896 -64.34945 -28.411793 -63.187927C -31.225014 -61.313114 -34.298035 -59.537952 -37.455067 -58.279255C -39.19234 -57.58671 -40.742393 -57.00587 -42.612724 -56.460754C -46.055225 -55.457516 -50.854073 -54.511692 -54.61577 -54.511692" stroke="#FFFEFE" stroke-width="0.004902833"  fill="#000000" fill-rule="evenodd" />
					</g>
				</g>
				<g>
					<g>
						<path  d="M-76.08885 -104.324814L-75.57531 -104.79225C -75.38128 -105.03871 -75.346 -105.09814 -75.13604 -105.33394C -74.92855 -105.56694 -74.89499 -105.65482 -74.69833 -105.87717C -74.50739 -106.09316 -74.34742 -106.20303 -74.159096 -106.428C -73.774155 -106.88769 -73.59358 -107.09284 -73.17319 -107.51309C -72.80123 -107.88475 -72.509415 -108.17686 -72.13761 -108.54866C -68.29715 -112.38896 -63.67375 -115.47249 -58.830513 -117.91374C -58.32611 -118.16795 -57.916084 -118.31479 -57.41384 -118.56807C -53.42237 -120.58151 -47.37303 -122.01551 -42.91986 -122.60409L-42.91986 -122.60409L-39.12132 -122.9482C -37.984234 -123.08018 -34.630398 -122.54668 -33.550083 -122.33843C -32.908745 -122.214806 -32.456482 -122.10077 -31.857086 -121.96043C -31.309345 -121.832016 -30.754192 -121.67604 -30.19949 -121.546844C -30.110527 -122.61539 -28.254581 -130.26302 -28.237572 -131.02998C -29.141949 -131.0501 -32.706062 -132.01094 -36.194527 -132.01094C -43.502098 -132.01094 -51.345016 -129.59305 -57.512703 -125.96985L-57.512703 -125.96985L-61.359222 -123.3853L-61.359222 -123.3853L-64.72558 -120.53851C -65.36803 -119.89021 -65.73549 -119.691376 -66.36198 -119.01401C -66.59253 -118.764725 -66.61913 -118.660904 -66.849686 -118.41179L-66.849686 -118.41179L-68.866684 -116.177734C -70.14412 -114.74528 -72.2883 -111.66763 -73.24947 -109.987465C -73.78266 -109.05539 -74.24142 -108.23782 -74.7446 -107.2315L-74.7446 -107.2315L-75.76007 -105.08605C -75.88229 -104.8136 -75.950226 -104.58678 -76.08885 -104.324814" stroke="#FFFEFE" stroke-width="0.004902833"  fill="#000000" fill-rule="evenodd" />
					</g>
				</g>
				<g>
					<g>
						<g>
						</g>
					</g>
					<g>
						<g>
							<g>
							</g>
							<g>
								<g>
								</g>
							</g>
						</g>
					</g>
				</g>
			</g>
		</g>
	</g>
</g>
</svg>
