<svg viewBox="0 0 245 61" x="0" y="0" fill="none" xmlns="http://www.w3.org/2000/svg"><defs><clipPath id="clip4_203_98" xmlns="http://www.w3.org/2000/svg"><rect width="60" height="60" fill="white" transform="translate(0.5, 0.5)"/></clipPath><clipPath id="clip5_203_98" xmlns="http://www.w3.org/2000/svg"><rect width="60" height="60" fill="white" transform="translate(0.5, 0.5)"/></clipPath><clipPath id="clip6_203_98" xmlns="http://www.w3.org/2000/svg"><rect width="60" height="60" fill="white" transform="translate(92.5, 0.5)"/></clipPath><clipPath id="clip7_203_98" xmlns="http://www.w3.org/2000/svg"><rect width="60" height="60" fill="white" transform="translate(92.5, 0.5)"/></clipPath><linearGradient id="paint0_linear_203_98" x1="132.50199999999995" y1="10.50200000000001" x2="117.50199999999995" y2="45.5" gradientUnits="userSpaceOnUse" xmlns="http://www.w3.org/2000/svg"><stop stop-color="#37AEE2"/><stop offset="1" stop-color="#1E96C8"/></linearGradient><linearGradient id="paint1_linear_203_98" x1="126.44000000000005" y1="30.014999999999986" x2="131.187" y2="40.721000000000004" gradientUnits="userSpaceOnUse" xmlns="http://www.w3.org/2000/svg"><stop stop-color="#EFF7FC"/><stop offset="1" stop-color="white"/></linearGradient><clipPath id="clip8_203_98" xmlns="http://www.w3.org/2000/svg"><rect width="60" height="60" fill="white" transform="translate(184.5, 0.5)"/></clipPath><clipPath id="clip9_203_98" xmlns="http://www.w3.org/2000/svg"><rect width="60" height="60" fill="white" transform="translate(184.5, 0.5)"/></clipPath></defs><g id="div#list" data-node-id="203:121" xmlns="http://www.w3.org/2000/svg"><g id="Slot → e-section--socials--item" data-node-id="203:122"><g id="viber.svg fill" data-node-id="203:123" clip-path="url(#clip4_203_98)"><g id="viber.svg" data-node-id="203:124" clip-path="url(#clip5_203_98)"><path id="Vector_4" data-node-id="203:125" d="M30.5,60.5c16.569,0 30,-13.431 30,-30c0,-16.569 -13.431,-30 -30,-30c-16.569,0 -30,13.431 -30,30c0,16.569 13.431,30 30,30z" fill="#6F3FAA"/><path id="Vector_5" data-node-id="203:126" d="M46.414,22.876l-0.012,-0.035c-0.799,-3.229 -4.431,-6.68 -7.758,-7.403l-0.035,-0.011c-5.384,-1.015 -10.849,-1.015 -16.222,0l-0.035,0.011c-3.326,0.723 -6.947,4.174 -7.758,7.403l-0.012,0.035c-0.999,4.5 -0.999,9.069 0,13.569l0.012,0.035c0.776,3.09 4.126,6.389 7.335,7.298v3.602c0,1.306 1.599,1.947 2.516,1.003l3.679,-3.789c0.799,0.047 1.599,0.07 2.398,0.07c2.715,0 5.419,-0.257 8.111,-0.758l0.035,-0.012c3.326,-0.722 6.959,-4.173 7.758,-7.402l0.012,-0.035c0.975,-4.512 0.975,-9.081 -0.024,-13.581zM43.511,35.792c-0.541,2.099 -3.292,4.722 -5.478,5.2c-2.868,0.536 -5.748,0.769 -8.628,0.687c-0.059,0 -0.117,0.024 -0.153,0.059c-0.411,0.419 -2.68,2.728 -2.68,2.728l-2.856,2.902c-0.212,0.222 -0.576,0.07 -0.576,-0.233v-5.957c0,-0.093 -0.071,-0.186 -0.165,-0.198c-2.186,-0.478 -4.937,-3.101 -5.477,-5.199c-0.894,-4.069 -0.894,-8.196 0,-12.264c0.54,-2.098 3.291,-4.721 5.477,-5.199c4.996,-0.945 10.074,-0.945 15.07,0c2.186,0.478 4.937,3.101 5.478,5.199c0.881,4.08 0.881,8.207 -0.012,12.275z" fill="white"/><path id="Vector_6" data-node-id="203:127" d="M35.246,38.738c-0.34,-0.094 0.293,-0.082 0,0z" fill="white"/><path id="Vector_7" data-node-id="203:128" d="M35.246,38.739c-0.34,-0.106 -0.655,-0.176 -0.948,-0.293c-3.07,-1.277 -5.906,-2.918 -8.144,-5.438c-1.277,-1.429 -2.274,-3.058 -3.117,-4.769c-0.399,-0.809 -0.739,-1.652 -1.078,-2.496c-0.317,-0.762 0.152,-1.559 0.632,-2.133c0.457,-0.539 1.043,-0.949 1.676,-1.266c0.492,-0.234 0.985,-0.105 1.348,0.317c0.785,0.914 1.5,1.863 2.086,2.918c0.363,0.644 0.258,1.441 -0.387,1.875c-0.152,0.105 -0.305,0.234 -0.445,0.351c-0.129,0.106 -0.246,0.211 -0.34,0.352c-0.164,0.258 -0.164,0.574 -0.07,0.855c0.796,2.203 2.144,3.914 4.359,4.828c0.352,0.153 0.715,0.317 1.113,0.27c0.68,-0.082 0.903,-0.832 1.383,-1.219c0.469,-0.386 1.066,-0.386 1.57,-0.07c0.504,0.316 0.996,0.656 1.477,1.008c0.48,0.34 0.949,0.668 1.394,1.054c0.422,0.375 0.575,0.856 0.329,1.372c-0.434,0.925 -1.067,1.699 -1.981,2.191c-0.258,0.164 -0.564,0.211 -0.857,0.293c0.293,-0.082 -0.34,-0.094 0,0z" fill="white"/><path id="Vector_8" data-node-id="203:129" d="M30.512,21.289c4.02,0.117 7.325,2.777 8.028,6.762c0.117,0.679 0.164,1.371 0.222,2.062c0.024,0.293 -0.14,0.563 -0.457,0.563c-0.328,0 -0.468,-0.27 -0.492,-0.551c-0.047,-0.574 -0.07,-1.148 -0.152,-1.711c-0.422,-3 -2.801,-5.473 -5.789,-6c-0.446,-0.082 -0.903,-0.105 -1.36,-0.152c-0.293,-0.035 -0.668,-0.047 -0.726,-0.41c-0.059,-0.305 0.199,-0.539 0.48,-0.551c0.082,-0.012 0.164,-0.012 0.246,-0.012c4.02,0.117 -0.082,0 0,0z" fill="white"/><path id="Vector_9" data-node-id="203:130" d="M36.618,29.211c-0.012,0.047 -0.012,0.164 -0.036,0.281c-0.105,0.399 -0.714,0.457 -0.855,0.047c-0.047,-0.117 -0.047,-0.258 -0.047,-0.387c0,-0.855 -0.187,-1.699 -0.621,-2.437c-0.445,-0.762 -1.113,-1.406 -1.91,-1.793c-0.481,-0.234 -0.996,-0.375 -1.524,-0.469c-0.234,-0.035 -0.457,-0.058 -0.691,-0.094c-0.281,-0.035 -0.434,-0.211 -0.41,-0.492c0.012,-0.258 0.199,-0.445 0.48,-0.422c0.926,0.047 1.817,0.246 2.637,0.692c1.664,0.879 2.625,2.273 2.895,4.136c0.011,0.082 0.035,0.165 0.035,0.258c0.023,0.199 0.035,0.41 0.047,0.68c0,0.047 -0.012,-0.27 0,0z" fill="white"/><path id="Vector_10" data-node-id="203:131" d="M34.122,29.117c-0.339,0.012 -0.515,-0.176 -0.55,-0.492c-0.024,-0.211 -0.047,-0.434 -0.094,-0.645c-0.106,-0.41 -0.316,-0.796 -0.668,-1.042c-0.164,-0.118 -0.352,-0.211 -0.539,-0.258c-0.246,-0.071 -0.504,-0.047 -0.75,-0.117c-0.27,-0.071 -0.41,-0.282 -0.375,-0.528c0.035,-0.222 0.258,-0.41 0.504,-0.387c1.558,0.118 2.672,0.915 2.836,2.754c0.011,0.129 0.023,0.27 0,0.387c-0.059,0.211 -0.211,0.316 -0.364,0.328c0.153,-0.012 -0.339,0 0,0z" fill="white"/><path id="Vector_11" data-node-id="203:132" d="M30.512,21.289c0.234,0.012 3.855,0.117 0,0z" fill="white"/><path id="Vector_12" data-node-id="203:133" d="M36.617,29.212c-0.012,-0.27 0,0.046 0,0z" fill="white"/></g></g></g><g id="Slot → e-section--socials--item_2" data-node-id="203:134"><g id="telegram.svg fill" data-node-id="203:135" clip-path="url(#clip6_203_98)"><g id="telegram.svg" data-node-id="203:136" clip-path="url(#clip7_203_98)"><path id="Vector_13" data-node-id="203:137" d="M122.5,60.5c16.569,0 30,-13.431 30,-30c0,-16.569 -13.431,-30 -30,-30c-16.569,0 -30,13.431 -30,30c0,16.569 13.431,30 30,30z" fill="url(#paint0_linear_203_98)"/><path id="Vector_14" data-node-id="203:138" d="M117,44.25c-0.972,0 -0.807,-0.367 -1.142,-1.292l-2.858,-9.408l22,-13.05" fill="#C8DAEA"/><path id="Vector_15" data-node-id="203:139" d="M117,44.25c0.75,0 1.081,-0.343 1.5,-0.75l4,-3.89l-4.99,-3.008" fill="#A9C9DD"/><path id="Vector_16" data-node-id="203:140" d="M117.732,36.148l12.044,8.977c1.375,0.766 2.367,0.37 2.709,-1.287l4.903,-23.307c0.502,-2.03 -0.767,-2.951 -2.082,-2.35l-28.788,11.2c-1.966,0.795 -1.954,1.901 -0.359,2.394l7.388,2.326l17.103,-10.886c0.808,-0.494 1.549,-0.228 0.94,0.316" fill="url(#paint1_linear_203_98)"/></g></g></g><g id="Slot → e-section--socials--item_3" data-node-id="203:141"><g id="whatsapp.svg fill" data-node-id="203:142" clip-path="url(#clip8_203_98)"><g id="whatsapp.svg" data-node-id="203:143" clip-path="url(#clip9_203_98)"><path id="Vector_17" data-node-id="203:144" d="M214.5,60.5c16.569,0 30,-13.431 30,-30c0,-16.569 -13.431,-30 -30,-30c-16.569,0 -30,13.431 -30,30c0,16.569 13.431,30 30,30z" fill="#40C351"/><path id="Vector_18" data-node-id="203:145" d="M209.744,20.866c0.398,0.008 0.661,0.362 0.814,0.675c0.509,1.096 0.916,2.227 1.399,3.332c0.102,0.227 0.17,0.48 0.085,0.725c-0.255,0.717 -0.848,1.232 -1.323,1.805c-0.169,0.194 -0.152,0.473 -0.017,0.675c1.304,2.52 3.537,4.439 6.232,5.356c0.255,0.11 0.56,0.085 0.738,-0.134c0.508,-0.565 0.989,-1.153 1.441,-1.763c0.39,-0.507 0.729,-0.363 1.238,-0.152l3.256,1.56c0.255,0.11 0.509,0.295 0.483,0.591c0.17,2.193 -1.805,3.897 -3.874,3.964c-5.342,-0.388 -8.988,-3.34 -11.617,-6.748c-0.864,-1.198 -1.78,-2.404 -2.255,-3.83c-0.449,-1.248 -0.466,-2.674 0.068,-3.905c0.822,-1.645 1.543,-2.278 3.357,-2.177zM204.741,14.573c3.918,-2.784 8.988,-3.847 13.736,-2.902c3.075,0.606 5.934,2.011 8.284,4.074c3.327,2.902 5.449,6.931 5.953,11.304c0.337,2.887 -0.041,5.812 -1.103,8.52c-1.255,3.205 -3.476,6.022 -6.291,8.013c-2.712,1.926 -5.916,3.051 -9.242,3.248c-3.329,0.204 -6.649,-0.527 -9.581,-2.109l-9.497,2.446l2.501,-9.11c0.051,-0.11 -0.025,-0.202 -0.084,-0.287c-1.877,-3.332 -2.621,-7.179 -2.12,-10.966c0.33,-2.435 1.159,-4.777 2.435,-6.88c1.276,-2.104 2.972,-3.925 4.984,-5.351zM208.93,15.636c-2.84,1.265 -5.257,3.441 -6.8,6.132c-1.221,2.109 -1.9,4.513 -1.95,6.943c-0.085,2.969 0.763,5.947 2.399,8.435c0.085,0.152 0.238,0.312 0.17,0.506l-1.442,5.264c1.806,-0.456 3.612,-0.945 5.427,-1.4c0.229,-0.085 0.424,0.101 0.61,0.202c3.128,1.877 6.841,2.541 10.43,1.864c2.098,-0.398 4.083,-1.247 5.816,-2.488c2.709,-1.936 4.688,-4.719 5.622,-7.904c0.84,-2.905 0.763,-5.997 -0.221,-8.857c-0.869,-2.513 -2.404,-4.745 -4.443,-6.462c-2.144,-1.813 -4.766,-2.978 -7.554,-3.357c-2.714,-0.363 -5.546,0.025 -8.056,1.156z" fill="#FCFCFC"/></g></g></g></g></svg>