<?xml version="1.0" encoding="UTF-8"?>
<!DOCTYPE svg PUBLIC "-//W3C//DTD SVG 1.1//EN" "http://www.w3.org/Graphics/SVG/1.1/DTD/svg11.dtd">
<svg xmlns="http://www.w3.org/2000/svg" version="1.1" width="1280px" height="794px" style="shape-rendering:geometricPrecision; text-rendering:geometricPrecision; image-rendering:optimizeQuality; fill-rule:evenodd; clip-rule:evenodd" xmlns:xlink="http://www.w3.org/1999/xlink">
<g><path style="opacity:0.978" fill="#000000" d="M 422.5,2.5 C 434.53,2.86866 446.53,3.702 458.5,5C 472.815,7.38608 487.148,9.55275 501.5,11.5C 495.495,40.5216 489.328,69.5216 483,98.5C 444.237,86.1738 404.737,83.0071 364.5,89C 243.301,106.369 143.134,161.203 64,253.5C 77.4166,220.082 95.0832,189.082 117,160.5C 194.878,62.3059 296.711,9.63921 422.5,2.5 Z"/></g>
<g><path style="opacity:0.289" fill="#000000" d="M 631.5,85.5 C 632.782,86.7082 632.782,88.0416 631.5,89.5C 630.374,88.1916 630.374,86.8583 631.5,85.5 Z"/></g>
<g><path style="opacity:0.977" fill="#000000" d="M 382.5,104.5 C 441.193,101.671 496.526,113.837 548.5,141C 593.811,167.31 627.644,204.143 650,251.5C 651.697,255.59 653.197,259.757 654.5,264C 654.15,265.257 653.483,265.591 652.5,265C 623.968,233.372 589.301,210.705 548.5,197C 476.021,171.988 402.688,168.988 328.5,188C 314.596,192.119 301.262,197.619 288.5,204.5C 288.167,204 287.833,203.5 287.5,203C 293.442,174.066 299.776,145.233 306.5,116.5C 314.745,112.77 323.411,110.27 332.5,109C 349.28,107.02 365.947,105.52 382.5,104.5 Z"/></g>
<g><path style="opacity:0.984" fill="#000000" d="M 195.5,241.5 C 225.5,241.5 255.5,241.5 285.5,241.5C 302.62,301.029 320.454,360.362 339,419.5C 350.977,360.448 363.144,301.448 375.5,242.5C 397.823,241.5 420.157,241.167 442.5,241.5C 424.167,328.167 405.833,414.833 387.5,501.5C 357.826,501.833 328.159,501.5 298.5,500.5C 280.234,441.536 262.068,382.536 244,323.5C 231.387,382.732 219.22,442.065 207.5,501.5C 184.824,501.833 162.157,501.5 139.5,500.5C 158.423,414.218 177.09,327.884 195.5,241.5 Z"/></g>
<g><path style="opacity:0.986" fill="#000000" d="M 555.5,302.5 C 576.733,301.354 597.4,304.187 617.5,311C 652.403,326.113 670.069,352.78 670.5,391C 668.807,458.364 634.474,496.364 567.5,505C 540.481,508.635 514.147,505.968 488.5,497C 460.201,483.354 444.368,460.854 441,429.5C 436.961,370.931 462.127,331.098 516.5,310C 529.405,306.251 542.405,303.751 555.5,302.5 Z"/></g>
<g><path style="opacity:0.976" fill="#000000" d="M 792.5,302.5 C 816.336,301.977 839.67,305.143 862.5,312C 865.251,312.516 867.584,313.683 869.5,315.5C 864.668,330.161 859.834,344.828 855,359.5C 830.718,348.793 805.552,345.96 779.5,351C 768.34,356.349 766.674,363.683 774.5,373C 778.888,375.861 783.554,378.194 788.5,380C 801.69,384.546 814.69,389.546 827.5,395C 853.587,410.264 860.754,432.097 849,460.5C 843.339,474.494 833.839,484.994 820.5,492C 799.751,502.384 777.751,507.217 754.5,506.5C 728.744,506.249 703.411,502.916 678.5,496.5C 682.392,480.597 687.059,464.931 692.5,449.5C 717.686,459.984 743.686,462.817 770.5,458C 780.896,455.959 785.396,449.793 784,439.5C 779.564,433.518 773.731,429.352 766.5,427C 752.716,422.774 739.383,417.441 726.5,411C 707.75,397.096 700.583,378.596 705,355.5C 708.501,341.344 716.334,330.178 728.5,322C 737.051,316.059 746.385,311.725 756.5,309C 768.467,305.843 780.467,303.677 792.5,302.5 Z"/></g>
<g><path style="opacity:0.976" fill="#000000" d="M 980.5,302.5 C 1007.38,301.601 1033.38,305.767 1058.5,315C 1053.34,329.817 1048.17,344.65 1043,359.5C 1021.8,350.161 999.632,346.661 976.5,349C 969.228,349.716 963.395,352.883 959,358.5C 957.121,361.866 957.121,365.2 959,368.5C 961.205,371.04 963.705,373.207 966.5,375C 982.262,381.921 998.262,388.254 1014.5,394C 1026.81,400.306 1035.64,409.806 1041,422.5C 1045.67,460.639 1029.84,486.139 993.5,499C 972.634,505.42 951.3,507.753 929.5,506C 908.47,505.106 887.803,501.939 867.5,496.5C 871.088,480.476 875.754,464.81 881.5,449.5C 906.676,459.983 932.676,462.816 959.5,458C 973.609,453.824 976.609,445.824 968.5,434C 963.446,430.806 958.112,428.139 952.5,426C 941.678,422.393 931.012,418.393 920.5,414C 897.185,400.445 888.352,380.278 894,353.5C 898.392,339.781 906.559,328.947 918.5,321C 937.77,309.853 958.436,303.686 980.5,302.5 Z"/></g>
<g><path style="opacity:0.978" fill="#000000" d="M 1174.5,302.5 C 1195.76,301.234 1216.42,304.068 1236.5,311C 1265.24,324.308 1277.41,346.808 1273,378.5C 1268.49,406.069 1262.82,433.402 1256,460.5C 1253.23,473.759 1250.9,487.092 1249,500.5C 1230.24,501.493 1211.41,501.826 1192.5,501.5C 1193.41,493.506 1193.91,485.506 1194,477.5C 1177.47,497.842 1155.97,507.509 1129.5,506.5C 1112.67,507.144 1097,503.311 1082.5,495C 1068.5,482.987 1061.83,467.654 1062.5,449C 1063.31,426.228 1073.31,408.895 1092.5,397C 1111.06,386.359 1131.06,380.359 1152.5,379C 1171.18,378.349 1189.84,378.515 1208.5,379.5C 1209.12,361.607 1200.45,351.44 1182.5,349C 1156.8,346.973 1132.47,351.806 1109.5,363.5C 1109.17,363.167 1108.83,362.833 1108.5,362.5C 1110.61,346.034 1113.28,329.7 1116.5,313.5C 1135.51,307.445 1154.85,303.779 1174.5,302.5 Z M 1171.5,414.5 C 1181.56,414.281 1191.56,414.948 1201.5,416.5C 1197.68,435.132 1187.35,448.632 1170.5,457C 1162.4,460.033 1154.07,461.033 1145.5,460C 1128.61,454.991 1124.44,444.824 1133,429.5C 1144.23,420.258 1157.07,415.258 1171.5,414.5 Z"/></g>
<g><path style="opacity:1" fill="#fcfcfc" d="M 565.5,334.5 C 569.258,342.913 572.758,351.58 576,360.5C 583.492,375.487 591.492,390.153 600,404.5C 607.577,427.433 601.077,445.266 580.5,458C 560.638,468.876 540.638,469.209 520.5,459C 504.904,447.457 500.737,432.624 508,414.5C 510.416,409.999 513.083,405.666 516,401.5C 526.333,389.167 536.667,376.833 547,364.5C 553.941,354.946 560.108,344.946 565.5,334.5 Z"/></g>
<g><path style="opacity:0.977" fill="#000000" d="M 7.5,521.5 C 7.89657,520.475 8.56323,520.308 9.5,521C 46.0226,559.774 90.356,585.441 142.5,598C 195.973,611.897 249.973,614.563 304.5,606C 328.473,601.398 351.473,593.898 373.5,583.5C 374.167,583.833 374.833,584.167 375.5,584.5C 369.245,613.443 363.245,642.443 357.5,671.5C 342.126,675.808 326.46,678.641 310.5,680C 252.351,687.019 196.017,680.019 141.5,659C 78.6893,630.691 34.0226,584.858 7.5,521.5 Z"/></g>
<g><path style="opacity:0.977" fill="#000000" d="M 597.5,533.5 C 598.124,533.917 598.457,534.584 598.5,535.5C 557.349,629.82 490.682,699.987 398.5,746C 346.286,769.21 291.619,782.043 234.5,784.5C 209.975,782.663 185.642,779.33 161.5,774.5C 167.628,745.863 173.628,717.196 179.5,688.5C 196.907,693.215 214.574,696.715 232.5,699C 313.267,702.143 389.267,684.476 460.5,646C 513.143,617.208 558.81,579.708 597.5,533.5 Z"/></g>
</svg>
